#N canvas 0 0 1522 762 12;
#X obj 20 70 hsl 200 15 0 1 0 0 empty empty empty -2 -8 0 10 #fcfcfc
#000000 #000000 19100 0;
#X obj 560 890 dac~;
#X obj 445 290 osc~;
#X floatatom 480 150 5 0 600 1 frecuencia - -, f 5;
#X obj 405 240 *~ 2;
#X obj 450 240 *~ 3;
#X obj 492 240 *~ 4;
#X obj 532 240 *~ 5;
#X obj 572 240 *~ 6;
#X obj 613 240 *~ 7;
#X obj 655 240 *~ 8;
#X obj 708 240 *~ 9;
#X obj 759 240 *~ 10;
#X obj 496 290 osc~;
#X obj 538 290 osc~;
#X obj 578 290 osc~;
#X obj 618 290 osc~;
#X obj 659 290 osc~;
#X obj 355 290 osc~;
#X obj 418 470 vsl 15 50 0 1 0 0 empty v1 empty 0 -9 0 10 #c4fcc4 #000000
#000000 3724 1;
#X obj 400 538 *~;
#X obj 463 470 vsl 15 50 0 1 0 0 empty v2 empty 0 -9 0 10 #c4fcc4 #000000
#000000 2254 1;
#X obj 445 538 *~;
#X obj 490 538 *~;
#X obj 534 538 *~;
#X obj 574 538 *~;
#X obj 614 538 *~;
#X obj 655 538 *~;
#X obj 697 538 *~;
#X obj 750 538 *~;
#X obj 801 538 *~;
#X obj 559 620 lop~;
#X obj 900 660 vsl 15 50 50 1500 1 0 empty empty Filtro_pasabajos 20
25 0 10 #e0c4fc #000000 #000000 1409 1;
#X obj 508 470 vsl 15 50 0 1 0 0 empty v3 empty 0 -9 0 10 #c4fcc4 #000000
#000000 1470 1;
#X obj 552 470 vsl 15 50 0 1 0 0 empty v4 empty 0 -9 0 10 #c4fcc4 #000000
#000000 4900 1;
#X obj 592 470 vsl 15 50 0 1 0 0 empty v5 empty 0 -9 0 10 #c4fcc4 #000000
#000000 4606 1;
#X obj 632 470 vsl 15 50 0 1 0 0 empty v6 empty 0 -9 0 10 #c4fcc4 #000000
#000000 4508 1;
#X obj 673 470 vsl 15 50 0 1 0 0 empty v7 empty 0 -9 0 10 #c4fcc4 #000000
#000000 3479 1;
#X obj 715 470 vsl 15 50 0 1 0 0 empty v8 empty 0 -9 0 10 #c4fcc4 #000000
#000000 2499 1;
#X obj 768 470 vsl 15 50 0 1 0 0 empty v9 empty 0 -9 0 10 #c4fcc4 #000000
#000000 931 1;
#X obj 819 469 vsl 15 50 0 1 0 0 empty v10 empty 0 -9 0 10 #c4fcc4
#000000 #000000 882 1;
#X obj 330 -30 loadbang;
#X obj 100 610 tgl 35 0 LT LB Random_on/off -50 -20 0 20 #fcc4c4 #000000
#000000 0 1;
#N canvas 0 108 1362 627 random 0;
#X obj 99 129 / 10;
#X obj 99 237 vline~;
#X obj 121 306 metro 100;
#X obj 100 334 snapshot~;
#X obj 121 274 tgl 25 0 empty LT empty 17 7 0 10 #fcc4c4 #000000 #000000
0 1;
#X obj 100 368 vsl 15 50 0 0.7 0 0 v1 empty empty 0 -9 0 10 #c4fcc4
#000000 #000000 0 1;
#X obj 99 48 metro 5000;
#X obj 230 74 random 4;
#X obj 230 128 / 10;
#X obj 230 237 vline~;
#X obj 255 306 metro 100;
#X obj 231 334 snapshot~;
#X obj 231 368 vsl 15 50 0 0.4 0 0 v2 empty empty 0 -9 0 10 #c4fcc4
#000000 #000000 0 1;
#X obj 230 102 + 1;
#X obj 230 47 metro 5500;
#X floatatom 107 160 5 0 0 0 - - -, f 5;
#X floatatom 238 159 5 0 0 0 - - -, f 5;
#X obj 350 74 random 4;
#X obj 350 128 / 10;
#X obj 350 237 vline~;
#X obj 372 306 metro 100;
#X obj 351 334 snapshot~;
#X obj 351 368 vsl 15 50 0 0.4 0 0 v3 empty empty 0 -9 0 10 #c4fcc4
#000000 #000000 0 1;
#X obj 350 102 + 1;
#X floatatom 358 159 5 0 0 0 - - -, f 5;
#X obj 467 77 random 4;
#X obj 467 131 / 10;
#X obj 467 237 vline~;
#X obj 489 306 metro 100;
#X obj 468 334 snapshot~;
#X obj 468 368 vsl 15 50 0 0.4 0 0 v4 empty empty 0 -9 0 10 #c4fcc4
#000000 #000000 0 1;
#X obj 467 105 + 1;
#X floatatom 475 162 5 0 0 0 - - -, f 5;
#X obj 581 131 / 10;
#X obj 581 237 vline~;
#X obj 603 306 metro 100;
#X obj 582 334 snapshot~;
#X obj 582 368 vsl 15 50 0 0.4 0 0 v5 empty empty 0 -9 0 10 #c4fcc4
#000000 #000000 0 1;
#X obj 581 105 + 1;
#X floatatom 589 162 5 0 0 0 - - -, f 5;
#X obj 688 133 / 10;
#X obj 688 237 vline~;
#X obj 710 306 metro 100;
#X obj 689 334 snapshot~;
#X obj 689 368 vsl 15 50 0 0.4 0 0 v6 empty empty 0 -9 0 10 #c4fcc4
#000000 #000000 0 1;
#X obj 688 107 + 1;
#X floatatom 696 164 5 0 0 0 - - -, f 5;
#X obj 802 133 / 10;
#X obj 802 237 vline~;
#X obj 824 306 metro 100;
#X obj 803 334 snapshot~;
#X obj 803 368 vsl 15 50 0 0.4 0 0 v7 empty empty 0 -9 0 10 #c4fcc4
#000000 #000000 0 1;
#X obj 802 107 + 1;
#X floatatom 810 164 5 0 0 0 - - -, f 5;
#X obj 912 136 / 10;
#X obj 912 237 vline~;
#X obj 934 306 metro 100;
#X obj 913 334 snapshot~;
#X obj 913 368 vsl 15 50 0 0.4 0 0 v8 empty empty 0 -9 0 10 #c4fcc4
#000000 #000000 0 1;
#X obj 912 110 + 1;
#X floatatom 920 167 5 0 0 0 - - -, f 5;
#X obj 912 55 metro 6000;
#X obj 1026 136 / 10;
#X obj 1026 237 vline~;
#X obj 1048 306 metro 100;
#X obj 1027 334 snapshot~;
#X obj 1027 368 vsl 15 50 0 0.4 0 0 v9 empty empty 0 -9 0 10 #c4fcc4
#000000 #000000 0 1;
#X floatatom 1034 167 5 0 0 0 - - -, f 5;
#X obj 1133 138 / 10;
#X obj 1133 237 vline~;
#X obj 1155 306 metro 100;
#X obj 1134 334 snapshot~;
#X obj 1134 368 vsl 15 50 0 0.4 0 0 v10 empty empty 0 -9 0 10 #c4fcc4
#000000 #000000 0 1;
#X floatatom 1141 169 5 0 0 0 - - -, f 5;
#X obj 350 47 metro 5550;
#X obj 467 50 metro 5600;
#X obj 581 50 metro 5700;
#X obj 688 52 metro 5800;
#X obj 802 52 metro 5900;
#X obj 1026 55 metro 6100;
#X text 100 445 1;
#X text 231 445 2;
#X text 351 445 3;
#X text 468 445 4;
#X text 582 445 5;
#X text 689 445 6;
#X text 803 445 7;
#X text 913 445 8;
#X text 1027 445 9;
#X text 1134 445 10;
#X obj 1026 82 random 2;
#X obj 912 82 random 2;
#X obj 802 79 random 2;
#X obj 581 77 random 3;
#X obj 688 79 random 3;
#X obj 99 75 random 5;
#X obj 99 104 + 3;
#X msg 99 206 \$1 5000;
#X obj 255 274 tgl 25 0 empty LT empty 17 7 0 10 #fcc4c4 #000000 #000000
0 1;
#X obj 372 274 tgl 25 0 empty LT empty 17 7 0 10 #fcc4c4 #000000 #000000
0 1;
#X obj 489 274 tgl 25 0 empty LT empty 17 7 0 10 #fcc4c4 #000000 #000000
0 1;
#X obj 603 274 tgl 25 0 empty LT empty 17 7 0 10 #fcc4c4 #000000 #000000
0 1;
#X obj 710 274 tgl 25 0 empty LT empty 17 7 0 10 #fcc4c4 #000000 #000000
0 1;
#X obj 824 274 tgl 25 0 empty LT empty 17 7 0 10 #fcc4c4 #000000 #000000
0 1;
#X obj 934 274 tgl 25 0 empty LT empty 17 7 0 10 #fcc4c4 #000000 #000000
0 1;
#X obj 1048 274 tgl 25 0 empty LT empty 17 7 0 10 #fcc4c4 #000000 #000000
0 1;
#X obj 1155 274 tgl 25 0 empty LT empty 17 7 0 10 #fcc4c4 #000000 #000000
0 1;
#X obj 1143 29 tgl 15 0 empty empty empty 17 7 0 10 #fcfcfc #000000
#000000 0 1;
#X msg 230 206 \$1 5500;
#X msg 350 206 \$1 5550;
#X msg 467 206 \$1 5600;
#X msg 581 206 \$1 5700;
#X msg 688 206 \$1 5800;
#X msg 802 206 \$1 5900;
#X msg 912 206 \$1 6000;
#X msg 1026 206 \$1 6100;
#X obj 1133 57 metro 6100;
#X msg 1133 206 \$1 6100;
#X obj 1133 84 random 2;
#X obj 99 0 inlet;
#X connect 0 0 97 0;
#X connect 0 0 15 0;
#X connect 1 0 3 0;
#X connect 2 0 3 0;
#X connect 3 0 5 0;
#X connect 4 0 2 0;
#X connect 6 0 95 0;
#X connect 7 0 13 0;
#X connect 8 0 108 0;
#X connect 8 0 16 0;
#X connect 9 0 11 0;
#X connect 10 0 11 0;
#X connect 11 0 12 0;
#X connect 13 0 8 0;
#X connect 14 0 7 0;
#X connect 17 0 23 0;
#X connect 18 0 109 0;
#X connect 18 0 24 0;
#X connect 19 0 21 0;
#X connect 20 0 21 0;
#X connect 21 0 22 0;
#X connect 23 0 18 0;
#X connect 25 0 31 0;
#X connect 26 0 110 0;
#X connect 26 0 32 0;
#X connect 27 0 29 0;
#X connect 28 0 29 0;
#X connect 29 0 30 0;
#X connect 31 0 26 0;
#X connect 33 0 111 0;
#X connect 33 0 39 0;
#X connect 34 0 36 0;
#X connect 35 0 36 0;
#X connect 36 0 37 0;
#X connect 38 0 33 0;
#X connect 40 0 112 0;
#X connect 40 0 46 0;
#X connect 41 0 43 0;
#X connect 42 0 43 0;
#X connect 43 0 44 0;
#X connect 45 0 40 0;
#X connect 47 0 113 0;
#X connect 47 0 53 0;
#X connect 48 0 50 0;
#X connect 49 0 50 0;
#X connect 50 0 51 0;
#X connect 52 0 47 0;
#X connect 54 0 114 0;
#X connect 54 0 60 0;
#X connect 55 0 57 0;
#X connect 56 0 57 0;
#X connect 57 0 58 0;
#X connect 59 0 54 0;
#X connect 61 0 91 0;
#X connect 62 0 115 0;
#X connect 62 0 67 0;
#X connect 63 0 65 0;
#X connect 64 0 65 0;
#X connect 65 0 66 0;
#X connect 68 0 117 0;
#X connect 68 0 73 0;
#X connect 69 0 71 0;
#X connect 70 0 71 0;
#X connect 71 0 72 0;
#X connect 74 0 17 0;
#X connect 75 0 25 0;
#X connect 76 0 93 0;
#X connect 77 0 94 0;
#X connect 78 0 92 0;
#X connect 79 0 90 0;
#X connect 90 0 62 0;
#X connect 91 0 59 0;
#X connect 92 0 52 0;
#X connect 93 0 38 0;
#X connect 94 0 45 0;
#X connect 95 0 96 0;
#X connect 96 0 0 0;
#X connect 97 0 1 0;
#X connect 98 0 10 0;
#X connect 99 0 20 0;
#X connect 100 0 28 0;
#X connect 101 0 35 0;
#X connect 102 0 42 0;
#X connect 103 0 49 0;
#X connect 104 0 56 0;
#X connect 105 0 64 0;
#X connect 106 0 70 0;
#X connect 107 0 116 0;
#X connect 108 0 9 0;
#X connect 109 0 19 0;
#X connect 110 0 27 0;
#X connect 111 0 34 0;
#X connect 112 0 41 0;
#X connect 113 0 48 0;
#X connect 114 0 55 0;
#X connect 115 0 63 0;
#X connect 116 0 118 0;
#X connect 117 0 69 0;
#X connect 118 0 68 0;
#X connect 119 0 6 0;
#X connect 119 0 14 0;
#X connect 119 0 61 0;
#X connect 119 0 74 0;
#X connect 119 0 75 0;
#X connect 119 0 76 0;
#X connect 119 0 77 0;
#X connect 119 0 78 0;
#X connect 119 0 79 0;
#X connect 119 0 116 0;
#X restore 100 680 pd random vol;
#X floatatom 1000 720 5 0 0 0 - - -, f 5;
#X obj 560 680 hip~;
#X obj 840 720 vsl 15 50 50 800 0 0 empty empty Filtro_pasaaltos 20
21 0 10 #e0c4fc #000000 #000000 4900 1;
#X floatatom 860 820 5 0 0 0 - - -, f 5;
#X text 57 713 Podes apagar el random y jugar con;
#X text 56 734 los sliders verdes y la frecuencia;
#X text 57 755 para generar un sonido que te guste;
#X text 70 840 Reinciar sliders verdes;
#X text 80 870 (apagar random primero);
#X msg 480 20 60;
#X text 58 812 jugá con los slider violetas tmb!;
#X obj 701 290 osc~;
#X obj 754 290 osc~;
#X obj 805 290 osc~;
#X obj 630 60 bng 66 250 50 0 empty empty empty 17 7 0 10 #fcfcfc #000000
#000000;
#X floatatom 20 110 5 0 0 0 - - -, f 5;
#X floatatom 100 189 5 0 0 0 - - -, f 5;
#X obj 100 217 sel 1;
#X obj 100 246 bng 15 250 50 0 empty empty empty 17 7 0 10 #fcfcfc
#000000 #000000;
#X obj 20 460 hsl 200 15 0 1 0 0 empty empty empty -2 -8 0 10 #fcfcfc
#000000 #000000 19100 0;
#X obj 20 370 line;
#X obj 560 800 *~;
#X obj 840 620 loadbang;
#X obj 170 380 s randomize;
#X obj 260 330 spigot;
#X obj 170 270 tgl 40 0 empty empty empty 17 7 0 10 #fcfcfc #000000
#000000 0 1;
#X floatatom 280 189 5 0 0 0 - - -, f 5;
#X obj 280 217 sel 1;
#X obj 280 246 bng 15 250 50 0 empty empty empty 17 7 0 10 #fcfcfc
#000000 #000000;
#X obj 270 70 unpack;
#X obj 100 160 <;
#X obj 280 160 >;
#N canvas 0 0 146 0 volcontrol 1;
#X obj 20 190 outlet;
#X obj 90 190 outlet;
#X obj 150 190 outlet;
#X obj 210 190 outlet;
#X obj 260 190 outlet;
#X obj 320 190 outlet;
#X obj 380 190 outlet;
#X obj 440 190 outlet;
#X obj 500 190 outlet;
#X obj 550 190 outlet;
#N canvas 895 204 451 327 randomito 0;
#X obj 222 32 bng 50 250 50 0 empty empty empty 17 7 0 10 #fcfcfc #000000
#000000;
#X floatatom 62 112 5 0 0 0 - - -, f 5;
#X obj 62 132 / 100;
#X floatatom 62 236 5 0 0 0 - - -, f 5;
#X obj 62 402 outlet;
#X obj 112 22 r randomize;
#X obj 272 97 r tick;
#X floatatom 272 122 5 0 0 0 - - -, f 5;
#X obj 272 248 sin;
#X obj 182 352 hsl 128 15 0 1 0 0 empty empty empty -2 -8 0 10 #fcfcfc
#000000 #000000 2287 1;
#X obj 182 302 +;
#X obj 182 332 hsl 128 15 0 1 0 0 empty empty empty -2 -8 0 10 #fcfcfc
#000000 #000000 1905 1;
#X obj 382 202 r sin_freq;
#X obj 382 227 r sin_amp;
#X floatatom 382 87 5 0 0 0 - - -, f 5;
#X obj 382 22 loadbang;
#X obj 382 62 \$0;
#X obj 272 146 +;
#X obj 382 111 expr ($f1-1000)*10;
#X obj 62 92 random 100;
#X obj 272 288 * 0;
#X obj 272 222 * 0;
#X obj 32 22 r set;
#X obj 62 212 line;
#X msg 62 182 \$1 1000;
#X connect 0 0 19 0;
#X connect 1 0 2 0;
#X connect 2 0 24 0;
#X connect 3 0 10 1;
#X connect 3 0 11 0;
#X connect 5 0 19 0;
#X connect 6 0 7 0;
#X connect 7 0 17 0;
#X connect 8 0 20 0;
#X connect 9 0 4 0;
#X connect 10 0 9 0;
#X connect 12 0 21 1;
#X connect 13 0 20 1;
#X connect 14 0 18 0;
#X connect 15 0 16 0;
#X connect 16 0 14 0;
#X connect 17 0 21 0;
#X connect 18 0 17 1;
#X connect 19 0 1 0;
#X connect 20 0 10 0;
#X connect 21 0 8 0;
#X connect 22 0 24 0;
#X connect 23 0 3 0;
#X connect 24 0 23 0;
#X restore 550 260 pd randomito;
#N canvas 895 204 451 327 randomito 0;
#X obj 222 32 bng 50 250 50 0 empty empty empty 17 7 0 10 #fcfcfc #000000
#000000;
#X floatatom 62 112 5 0 0 0 - - -, f 5;
#X obj 62 132 / 100;
#X floatatom 62 236 5 0 0 0 - - -, f 5;
#X obj 62 402 outlet;
#X obj 112 22 r randomize;
#X obj 272 97 r tick;
#X floatatom 272 122 5 0 0 0 - - -, f 5;
#X obj 272 248 sin;
#X obj 182 352 hsl 128 15 0 1 0 0 empty empty empty -2 -8 0 10 #fcfcfc
#000000 #000000 9653 1;
#X obj 182 302 +;
#X obj 182 332 hsl 128 15 0 1 0 0 empty empty empty -2 -8 0 10 #fcfcfc
#000000 #000000 9271 1;
#X obj 382 202 r sin_freq;
#X obj 382 227 r sin_amp;
#X floatatom 382 87 5 0 0 0 - - -, f 5;
#X obj 382 22 loadbang;
#X obj 382 62 \$0;
#X obj 272 146 +;
#X obj 382 111 expr ($f1-1000)*10;
#X obj 62 92 random 100;
#X obj 272 288 * 0;
#X obj 272 222 * 0;
#X obj 32 22 r set;
#X obj 62 212 line;
#X msg 62 182 \$1 1000;
#X connect 0 0 19 0;
#X connect 1 0 2 0;
#X connect 2 0 24 0;
#X connect 3 0 10 1;
#X connect 3 0 11 0;
#X connect 5 0 19 0;
#X connect 6 0 7 0;
#X connect 7 0 17 0;
#X connect 8 0 20 0;
#X connect 9 0 4 0;
#X connect 10 0 9 0;
#X connect 12 0 21 1;
#X connect 13 0 20 1;
#X connect 14 0 18 0;
#X connect 15 0 16 0;
#X connect 16 0 14 0;
#X connect 17 0 21 0;
#X connect 18 0 17 1;
#X connect 19 0 1 0;
#X connect 20 0 10 0;
#X connect 21 0 8 0;
#X connect 22 0 24 0;
#X connect 23 0 3 0;
#X connect 24 0 23 0;
#X restore 20 100 pd randomito;
#N canvas 895 204 451 327 randomito 0;
#X obj 222 32 bng 50 250 50 0 empty empty empty 17 7 0 10 #fcfcfc #000000
#000000;
#X floatatom 62 112 5 0 0 0 - - -, f 5;
#X obj 62 132 / 100;
#X floatatom 62 236 5 0 0 0 - - -, f 5;
#X obj 62 402 outlet;
#X obj 112 22 r randomize;
#X obj 272 97 r tick;
#X floatatom 272 122 5 0 0 0 - - -, f 5;
#X obj 272 248 sin;
#X obj 182 352 hsl 128 15 0 1 0 0 empty empty empty -2 -8 0 10 #fcfcfc
#000000 #000000 5843 1;
#X obj 182 302 +;
#X obj 182 332 hsl 128 15 0 1 0 0 empty empty empty -2 -8 0 10 #fcfcfc
#000000 #000000 5461 1;
#X obj 382 202 r sin_freq;
#X obj 382 227 r sin_amp;
#X floatatom 382 87 5 0 0 0 - - -, f 5;
#X obj 382 22 loadbang;
#X obj 382 62 \$0;
#X obj 272 146 +;
#X obj 382 111 expr ($f1-1000)*10;
#X obj 62 92 random 100;
#X obj 272 288 * 0;
#X obj 272 222 * 0;
#X obj 32 22 r set;
#X obj 62 212 line;
#X msg 62 182 \$1 1000;
#X connect 0 0 19 0;
#X connect 1 0 2 0;
#X connect 2 0 24 0;
#X connect 3 0 10 1;
#X connect 3 0 11 0;
#X connect 5 0 19 0;
#X connect 6 0 7 0;
#X connect 7 0 17 0;
#X connect 8 0 20 0;
#X connect 9 0 4 0;
#X connect 10 0 9 0;
#X connect 12 0 21 1;
#X connect 13 0 20 1;
#X connect 14 0 18 0;
#X connect 15 0 16 0;
#X connect 16 0 14 0;
#X connect 17 0 21 0;
#X connect 18 0 17 1;
#X connect 19 0 1 0;
#X connect 20 0 10 0;
#X connect 21 0 8 0;
#X connect 22 0 24 0;
#X connect 23 0 3 0;
#X connect 24 0 23 0;
#X restore 90 260 pd randomito;
#N canvas 895 204 451 327 randomito 0;
#X obj 222 32 bng 50 250 50 0 empty empty empty 17 7 0 10 #fcfcfc #000000
#000000;
#X floatatom 62 112 5 0 0 0 - - -, f 5;
#X obj 62 132 / 100;
#X floatatom 62 236 5 0 0 0 - - -, f 5;
#X obj 62 402 outlet;
#X obj 112 22 r randomize;
#X obj 272 97 r tick;
#X floatatom 272 122 5 0 0 0 - - -, f 5;
#X obj 272 248 sin;
#X obj 182 352 hsl 128 15 0 1 0 0 empty empty empty -2 -8 0 10 #fcfcfc
#000000 #000000 3811 1;
#X obj 182 302 +;
#X obj 182 332 hsl 128 15 0 1 0 0 empty empty empty -2 -8 0 10 #fcfcfc
#000000 #000000 3429 1;
#X obj 382 202 r sin_freq;
#X obj 382 227 r sin_amp;
#X floatatom 382 87 5 0 0 0 - - -, f 5;
#X obj 382 22 loadbang;
#X obj 382 62 \$0;
#X obj 272 146 +;
#X obj 382 111 expr ($f1-1000)*10;
#X obj 62 92 random 100;
#X obj 272 288 * 0;
#X obj 272 222 * 0;
#X obj 32 22 r set;
#X obj 62 212 line;
#X msg 62 182 \$1 1000;
#X connect 0 0 19 0;
#X connect 1 0 2 0;
#X connect 2 0 24 0;
#X connect 3 0 10 1;
#X connect 3 0 11 0;
#X connect 5 0 19 0;
#X connect 6 0 7 0;
#X connect 7 0 17 0;
#X connect 8 0 20 0;
#X connect 9 0 4 0;
#X connect 10 0 9 0;
#X connect 12 0 21 1;
#X connect 13 0 20 1;
#X connect 14 0 18 0;
#X connect 15 0 16 0;
#X connect 16 0 14 0;
#X connect 17 0 21 0;
#X connect 18 0 17 1;
#X connect 19 0 1 0;
#X connect 20 0 10 0;
#X connect 21 0 8 0;
#X connect 22 0 24 0;
#X connect 23 0 3 0;
#X connect 24 0 23 0;
#X restore 150 100 pd randomito;
#N canvas 895 204 451 327 randomito 0;
#X obj 222 32 bng 50 250 50 0 empty empty empty 17 7 0 10 #fcfcfc #000000
#000000;
#X floatatom 62 112 5 0 0 0 - - -, f 5;
#X obj 62 132 / 100;
#X floatatom 62 236 5 0 0 0 - - -, f 5;
#X obj 62 402 outlet;
#X obj 112 22 r randomize;
#X obj 272 97 r tick;
#X floatatom 272 122 5 0 0 0 - - -, f 5;
#X obj 272 248 sin;
#X obj 182 352 hsl 128 15 0 1 0 0 empty empty empty -2 -8 0 10 #fcfcfc
#000000 #000000 12700 1;
#X obj 182 302 +;
#X obj 182 332 hsl 128 15 0 1 0 0 empty empty empty -2 -8 0 10 #fcfcfc
#000000 #000000 12446 1;
#X obj 382 202 r sin_freq;
#X obj 382 227 r sin_amp;
#X floatatom 382 87 5 0 0 0 - - -, f 5;
#X obj 382 22 loadbang;
#X obj 382 62 \$0;
#X obj 272 146 +;
#X obj 382 111 expr ($f1-1000)*10;
#X obj 62 92 random 100;
#X obj 272 288 * 0;
#X obj 272 222 * 0;
#X obj 32 22 r set;
#X obj 62 212 line;
#X msg 62 182 \$1 1000;
#X connect 0 0 19 0;
#X connect 1 0 2 0;
#X connect 2 0 24 0;
#X connect 3 0 10 1;
#X connect 3 0 11 0;
#X connect 5 0 19 0;
#X connect 6 0 7 0;
#X connect 7 0 17 0;
#X connect 8 0 20 0;
#X connect 9 0 4 0;
#X connect 10 0 9 0;
#X connect 12 0 21 1;
#X connect 13 0 20 1;
#X connect 14 0 18 0;
#X connect 15 0 16 0;
#X connect 16 0 14 0;
#X connect 17 0 21 0;
#X connect 18 0 17 1;
#X connect 19 0 1 0;
#X connect 20 0 10 0;
#X connect 21 0 8 0;
#X connect 22 0 24 0;
#X connect 23 0 3 0;
#X connect 24 0 23 0;
#X restore 210 240 pd randomito;
#N canvas 895 204 451 327 randomito 0;
#X obj 222 32 bng 50 250 50 0 empty empty empty 17 7 0 10 #fcfcfc #000000
#000000;
#X floatatom 62 112 5 0 0 0 - - -, f 5;
#X obj 62 132 / 100;
#X floatatom 62 236 5 0 0 0 - - -, f 5;
#X obj 62 402 outlet;
#X obj 112 22 r randomize;
#X obj 272 97 r tick;
#X floatatom 272 122 5 0 0 0 - - -, f 5;
#X obj 272 248 sin;
#X obj 182 352 hsl 128 15 0 1 0 0 empty empty empty -2 -8 0 10 #fcfcfc
#000000 #000000 11939 1;
#X obj 182 302 +;
#X obj 182 332 hsl 128 15 0 1 0 0 empty empty empty -2 -8 0 10 #fcfcfc
#000000 #000000 11557 1;
#X obj 382 202 r sin_freq;
#X obj 382 227 r sin_amp;
#X floatatom 382 87 5 0 0 0 - - -, f 5;
#X obj 382 22 loadbang;
#X obj 382 62 \$0;
#X obj 272 146 +;
#X obj 382 111 expr ($f1-1000)*10;
#X obj 62 92 random 100;
#X obj 272 288 * 0;
#X obj 272 222 * 0;
#X obj 32 22 r set;
#X obj 62 212 line;
#X msg 62 182 \$1 1000;
#X connect 0 0 19 0;
#X connect 1 0 2 0;
#X connect 2 0 24 0;
#X connect 3 0 10 1;
#X connect 3 0 11 0;
#X connect 5 0 19 0;
#X connect 6 0 7 0;
#X connect 7 0 17 0;
#X connect 8 0 20 0;
#X connect 9 0 4 0;
#X connect 10 0 9 0;
#X connect 12 0 21 1;
#X connect 13 0 20 1;
#X connect 14 0 18 0;
#X connect 15 0 16 0;
#X connect 16 0 14 0;
#X connect 17 0 21 0;
#X connect 18 0 17 1;
#X connect 19 0 1 0;
#X connect 20 0 10 0;
#X connect 21 0 8 0;
#X connect 22 0 24 0;
#X connect 23 0 3 0;
#X connect 24 0 23 0;
#X restore 260 130 pd randomito;
#N canvas 895 204 451 327 randomito 0;
#X obj 222 32 bng 50 250 50 0 empty empty empty 17 7 0 10 #fcfcfc #000000
#000000;
#X floatatom 62 112 5 0 0 0 - - -, f 5;
#X obj 62 132 / 100;
#X floatatom 62 236 5 0 0 0 - - -, f 5;
#X obj 62 402 outlet;
#X obj 112 22 r randomize;
#X obj 272 97 r tick;
#X floatatom 272 122 5 0 0 0 - - -, f 5;
#X obj 272 248 sin;
#X obj 182 352 hsl 128 15 0 1 0 0 empty empty empty -2 -8 0 10 #fcfcfc
#000000 #000000 11685 1;
#X obj 182 302 +;
#X obj 182 332 hsl 128 15 0 1 0 0 empty empty empty -2 -8 0 10 #fcfcfc
#000000 #000000 11303 1;
#X obj 382 202 r sin_freq;
#X obj 382 227 r sin_amp;
#X floatatom 382 87 5 0 0 0 - - -, f 5;
#X obj 382 22 loadbang;
#X obj 382 62 \$0;
#X obj 272 146 +;
#X obj 382 111 expr ($f1-1000)*10;
#X obj 62 92 random 100;
#X obj 272 288 * 0;
#X obj 272 222 * 0;
#X obj 32 22 r set;
#X obj 62 212 line;
#X msg 62 182 \$1 1000;
#X connect 0 0 19 0;
#X connect 1 0 2 0;
#X connect 2 0 24 0;
#X connect 3 0 10 1;
#X connect 3 0 11 0;
#X connect 5 0 19 0;
#X connect 6 0 7 0;
#X connect 7 0 17 0;
#X connect 8 0 20 0;
#X connect 9 0 4 0;
#X connect 10 0 9 0;
#X connect 12 0 21 1;
#X connect 13 0 20 1;
#X connect 14 0 18 0;
#X connect 15 0 16 0;
#X connect 16 0 14 0;
#X connect 17 0 21 0;
#X connect 18 0 17 1;
#X connect 19 0 1 0;
#X connect 20 0 10 0;
#X connect 21 0 8 0;
#X connect 22 0 24 0;
#X connect 23 0 3 0;
#X connect 24 0 23 0;
#X restore 320 230 pd randomito;
#N canvas 895 204 451 327 randomito 0;
#X obj 222 32 bng 50 250 50 0 empty empty empty 17 7 0 10 #fcfcfc #000000
#000000;
#X floatatom 62 112 5 0 0 0 - - -, f 5;
#X obj 62 132 / 100;
#X floatatom 62 236 5 0 0 0 - - -, f 5;
#X obj 62 402 outlet;
#X obj 112 22 r randomize;
#X obj 272 97 r tick;
#X floatatom 272 122 5 0 0 0 - - -, f 5;
#X obj 272 248 sin;
#X obj 182 352 hsl 128 15 0 1 0 0 empty empty empty -2 -8 0 10 #fcfcfc
#000000 #000000 9018 1;
#X obj 182 302 +;
#X obj 182 332 hsl 128 15 0 1 0 0 empty empty empty -2 -8 0 10 #fcfcfc
#000000 #000000 8636 1;
#X obj 382 202 r sin_freq;
#X obj 382 227 r sin_amp;
#X floatatom 382 87 5 0 0 0 - - -, f 5;
#X obj 382 22 loadbang;
#X obj 382 62 \$0;
#X obj 272 146 +;
#X obj 382 111 expr ($f1-1000)*10;
#X obj 62 92 random 100;
#X obj 272 288 * 0;
#X obj 272 222 * 0;
#X obj 32 22 r set;
#X obj 62 212 line;
#X msg 62 182 \$1 1000;
#X connect 0 0 19 0;
#X connect 1 0 2 0;
#X connect 2 0 24 0;
#X connect 3 0 10 1;
#X connect 3 0 11 0;
#X connect 5 0 19 0;
#X connect 6 0 7 0;
#X connect 7 0 17 0;
#X connect 8 0 20 0;
#X connect 9 0 4 0;
#X connect 10 0 9 0;
#X connect 12 0 21 1;
#X connect 13 0 20 1;
#X connect 14 0 18 0;
#X connect 15 0 16 0;
#X connect 16 0 14 0;
#X connect 17 0 21 0;
#X connect 18 0 17 1;
#X connect 19 0 1 0;
#X connect 20 0 10 0;
#X connect 21 0 8 0;
#X connect 22 0 24 0;
#X connect 23 0 3 0;
#X connect 24 0 23 0;
#X restore 380 90 pd randomito;
#N canvas 895 204 451 327 randomito 0;
#X obj 222 32 bng 50 250 50 0 empty empty empty 17 7 0 10 #fcfcfc #000000
#000000;
#X floatatom 62 112 5 0 0 0 - - -, f 5;
#X obj 62 132 / 100;
#X floatatom 62 236 5 0 0 0 - - -, f 5;
#X obj 62 402 outlet;
#X obj 112 22 r randomize;
#X obj 272 97 r tick;
#X floatatom 272 122 5 0 0 0 - - -, f 5;
#X obj 272 248 sin;
#X obj 182 352 hsl 128 15 0 1 0 0 empty empty empty -2 -8 0 10 #fcfcfc
#000000 #000000 6478 1;
#X obj 182 302 +;
#X obj 182 332 hsl 128 15 0 1 0 0 empty empty empty -2 -8 0 10 #fcfcfc
#000000 #000000 6096 1;
#X obj 382 202 r sin_freq;
#X obj 382 227 r sin_amp;
#X floatatom 382 87 5 0 0 0 - - -, f 5;
#X obj 382 22 loadbang;
#X obj 382 62 \$0;
#X obj 272 146 +;
#X obj 382 111 expr ($f1-1000)*10;
#X obj 62 92 random 100;
#X obj 272 288 * 0;
#X obj 272 222 * 0;
#X obj 32 22 r set;
#X obj 62 212 line;
#X msg 62 182 \$1 1000;
#X connect 0 0 19 0;
#X connect 1 0 2 0;
#X connect 2 0 24 0;
#X connect 3 0 10 1;
#X connect 3 0 11 0;
#X connect 5 0 19 0;
#X connect 6 0 7 0;
#X connect 7 0 17 0;
#X connect 8 0 20 0;
#X connect 9 0 4 0;
#X connect 10 0 9 0;
#X connect 12 0 21 1;
#X connect 13 0 20 1;
#X connect 14 0 18 0;
#X connect 15 0 16 0;
#X connect 16 0 14 0;
#X connect 17 0 21 0;
#X connect 18 0 17 1;
#X connect 19 0 1 0;
#X connect 20 0 10 0;
#X connect 21 0 8 0;
#X connect 22 0 24 0;
#X connect 23 0 3 0;
#X connect 24 0 23 0;
#X restore 440 240 pd randomito;
#N canvas 895 204 451 327 randomito 0;
#X obj 222 32 bng 50 250 50 0 empty empty empty 17 7 0 10 #fcfcfc #000000
#000000;
#X floatatom 62 112 5 0 0 0 - - -, f 5;
#X obj 62 132 / 100;
#X floatatom 62 236 5 0 0 0 - - -, f 5;
#X obj 62 402 outlet;
#X obj 112 22 r randomize;
#X obj 272 97 r tick;
#X floatatom 272 122 5 0 0 0 - - -, f 5;
#X obj 272 248 sin;
#X obj 182 352 hsl 128 15 0 1 0 0 empty empty empty -2 -8 0 10 #fcfcfc
#000000 #000000 2414 1;
#X obj 182 302 +;
#X obj 182 332 hsl 128 15 0 1 0 0 empty empty empty -2 -8 0 10 #fcfcfc
#000000 #000000 2032 1;
#X obj 382 202 r sin_freq;
#X obj 382 227 r sin_amp;
#X floatatom 382 87 5 0 0 0 - - -, f 5;
#X obj 382 22 loadbang;
#X obj 382 62 \$0;
#X obj 272 146 +;
#X obj 382 111 expr ($f1-1000)*10;
#X obj 62 92 random 100;
#X obj 272 288 * 0;
#X obj 272 222 * 0;
#X obj 32 22 r set;
#X obj 62 212 line;
#X msg 62 182 \$1 1000;
#X connect 0 0 19 0;
#X connect 1 0 2 0;
#X connect 2 0 24 0;
#X connect 3 0 10 1;
#X connect 3 0 11 0;
#X connect 5 0 19 0;
#X connect 6 0 7 0;
#X connect 7 0 17 0;
#X connect 8 0 20 0;
#X connect 9 0 4 0;
#X connect 10 0 9 0;
#X connect 12 0 21 1;
#X connect 13 0 20 1;
#X connect 14 0 18 0;
#X connect 15 0 16 0;
#X connect 16 0 14 0;
#X connect 17 0 21 0;
#X connect 18 0 17 1;
#X connect 19 0 1 0;
#X connect 20 0 10 0;
#X connect 21 0 8 0;
#X connect 22 0 24 0;
#X connect 23 0 3 0;
#X connect 24 0 23 0;
#X restore 500 110 pd randomito;
#X connect 10 0 9 0;
#X connect 11 0 0 0;
#X connect 12 0 1 0;
#X connect 13 0 2 0;
#X connect 14 0 3 0;
#X connect 15 0 4 0;
#X connect 16 0 5 0;
#X connect 17 0 6 0;
#X connect 18 0 7 0;
#X connect 19 0 8 0;
#X restore 840 210 pd volcontrol;
#X obj 630 140 s randomize;
#N canvas 536 228 450 305 clock 0;
#X obj 130 -4 bng 15 250 50 0 empty empty empty 17 7 0 10 #fcfcfc #000000
#000000;
#X msg 130 115 1;
#X obj 130 144 +;
#X msg 180 56 0;
#X obj 130 20 t b b;
#X floatatom 170 146 5 0 0 0 - - -, f 5;
#X floatatom 130 173 5 0 0 0 - - -, f 5;
#X obj 130 240 s tick;
#X obj 30 0 inlet;
#X obj 130 86 metro 100;
#X connect 0 0 4 0;
#X connect 1 0 2 0;
#X connect 2 0 5 0;
#X connect 2 0 6 0;
#X connect 3 0 2 1;
#X connect 4 0 9 0;
#X connect 4 1 3 0;
#X connect 5 0 2 1;
#X connect 6 0 7 0;
#X connect 8 0 0 0;
#X connect 9 0 1 0;
#X restore 380 20 pd clock;
#X obj 770 90 s sin_freq;
#X obj 860 90 s sin_amp;
#X obj 770 20 vsl 20 50 0 1 0 0 empty empty empty 0 -9 0 10 #fcfcfc
#000000 #000000 700 1;
#X obj 860 20 vsl 20 50 0 0.5 0 0 empty empty empty 0 -9 0 10 #fcfcfc
#000000 #000000 500 1;
#X obj 1020 820 r tick;
#X floatatom 1020 878 5 0 0 0 - - -, f 5;
#X msg 1020 940 60;
#X msg 1060 940 80;
#X msg 1100 940 120;
#X msg 1140 940 50;
#X obj 1020 999 line;
#X obj 1020 906 sel 0 1 2 3 4;
#X msg 1020 970 \$1 2000;
#X obj 1020 850 expr ($f1/80)%4;
#X obj 1070 880 hradio 15 1 0 8 empty empty empty 0 -8 0 10 #fcfcfc
#000000 #000000 3;
#X obj 550 20 vsl 20 50 0 1 0 0 empty empty empty 0 -9 0 10 #fcfcfc
#000000 #000000 0 1;
#X obj 550 90 s set;
#X msg 400 80 0.5;
#X msg 170 200 1;
#X msg 210 200 0;
#X msg 280 40 0.4 0.8;
#X obj 20 0 receive proximity;
#X obj 560 840 clip~ -1 1;
#X obj 630 740 loadbang;
#X obj 630 800 hsl 128 15 0 1 0 0 empty empty empty -2 -8 0 10 #fcfcfc
#000000 #000000 2540 1;
#X msg 630 760 0.2;
#X msg 20 300 \$1 1000;
#X msg 840 670 800;
#X obj 980 -20 loadbang;
#X obj 640 -20 loadbang;
#X msg 720 0 0.142;
#X msg 920 0 0.051;
#X obj 950 600 loadbang;
#X msg 950 630 133;
#X connect 0 0 59 0;
#X connect 2 0 22 0;
#X connect 3 0 4 0;
#X connect 3 0 5 0;
#X connect 3 0 6 0;
#X connect 3 0 7 0;
#X connect 3 0 8 0;
#X connect 3 0 9 0;
#X connect 3 0 10 0;
#X connect 3 0 11 0;
#X connect 3 0 12 0;
#X connect 3 0 18 0;
#X connect 4 0 2 0;
#X connect 5 0 13 0;
#X connect 6 0 14 0;
#X connect 7 0 15 0;
#X connect 8 0 16 0;
#X connect 9 0 17 0;
#X connect 10 0 55 0;
#X connect 11 0 56 0;
#X connect 12 0 57 0;
#X connect 13 0 23 0;
#X connect 14 0 24 0;
#X connect 15 0 25 0;
#X connect 16 0 26 0;
#X connect 17 0 27 0;
#X connect 18 0 20 0;
#X connect 19 0 20 1;
#X connect 20 0 31 0;
#X connect 21 0 22 1;
#X connect 22 0 31 0;
#X connect 23 0 31 0;
#X connect 24 0 31 0;
#X connect 25 0 31 0;
#X connect 26 0 31 0;
#X connect 27 0 31 0;
#X connect 28 0 31 0;
#X connect 29 0 31 0;
#X connect 30 0 31 0;
#X connect 31 0 45 0;
#X connect 32 0 31 1;
#X connect 33 0 23 1;
#X connect 34 0 24 1;
#X connect 35 0 25 1;
#X connect 36 0 26 1;
#X connect 37 0 27 1;
#X connect 38 0 28 1;
#X connect 39 0 29 1;
#X connect 40 0 30 1;
#X connect 41 0 53 0;
#X connect 41 0 78 0;
#X connect 41 0 96 0;
#X connect 41 0 99 0;
#X connect 42 0 43 0;
#X connect 45 0 65 0;
#X connect 46 0 45 1;
#X connect 53 0 3 0;
#X connect 55 0 28 0;
#X connect 56 0 29 0;
#X connect 57 0 30 0;
#X connect 58 0 77 0;
#X connect 59 0 105 0;
#X connect 59 0 74 0;
#X connect 59 0 75 0;
#X connect 60 0 61 0;
#X connect 61 0 62 0;
#X connect 62 0 97 0;
#X connect 63 0 65 1;
#X connect 64 0 63 0;
#X connect 65 0 101 0;
#X connect 66 0 106 0;
#X connect 68 0 67 0;
#X connect 68 0 98 0;
#X connect 69 0 68 1;
#X connect 70 0 71 0;
#X connect 71 0 72 0;
#X connect 72 0 68 0;
#X connect 73 0 74 1;
#X connect 73 1 75 1;
#X connect 74 0 60 0;
#X connect 75 0 70 0;
#X connect 76 0 19 0;
#X connect 76 1 21 0;
#X connect 76 2 33 0;
#X connect 76 3 34 0;
#X connect 76 4 35 0;
#X connect 76 5 36 0;
#X connect 76 6 37 0;
#X connect 76 7 38 0;
#X connect 76 8 39 0;
#X connect 76 9 40 0;
#X connect 81 0 79 0;
#X connect 82 0 80 0;
#X connect 83 0 92 0;
#X connect 84 0 90 0;
#X connect 85 0 91 0;
#X connect 86 0 91 0;
#X connect 87 0 91 0;
#X connect 88 0 91 0;
#X connect 90 0 85 0;
#X connect 90 1 86 0;
#X connect 90 2 87 0;
#X connect 90 3 88 0;
#X connect 91 0 89 0;
#X connect 92 0 84 0;
#X connect 92 0 93 0;
#X connect 94 0 95 0;
#X connect 96 0 95 0;
#X connect 97 0 69 0;
#X connect 98 0 69 0;
#X connect 99 0 73 0;
#X connect 100 0 0 0;
#X connect 101 0 1 0;
#X connect 101 0 1 1;
#X connect 102 0 104 0;
#X connect 103 0 65 1;
#X connect 104 0 103 0;
#X connect 105 0 64 0;
#X connect 106 0 46 0;
#X connect 107 0 110 0;
#X connect 108 0 109 0;
#X connect 109 0 81 0;
#X connect 110 0 82 0;
#X connect 111 0 112 0;
#X connect 112 0 32 0;
