#N canvas 76 48 518 666 12;
#X obj 110 257 line;
#X obj 110 300 vsl 15 128 0 1 0 0 empty empty empty 0 -9 0 10 #fcfcfc
#000000 #000000 2400 1;
#X msg 40 179 1 100;
#X msg 114 179 0.5 100;
#X msg 197 180 0 300;
#X obj 94 107 sel 0 1 2;
#X obj 94 57 r com3;
#X obj 130 510 *~;
#X obj 130 535 dac~;
#X obj 210 390 +~;
#X obj 210 260 sig~ 200;
#X obj 260 300 osc~ 200;
#X obj 267 348 *~;
#X obj 210 415 osc~;
#X floatatom 390 250 5 0 0 0 - - -, f 5;
#X obj 390 320 *~;
#X obj 360 150 receive proximity;
#X connect 0 0 1 0;
#X connect 2 0 0 0;
#X connect 3 0 0 0;
#X connect 4 0 0 0;
#X connect 5 0 2 0;
#X connect 5 1 3 0;
#X connect 5 2 4 0;
#X connect 6 0 5 0;
#X connect 7 0 8 0;
#X connect 9 0 13 0;
#X connect 10 0 9 0;
#X connect 11 0 12 0;
#X connect 12 0 9 1;
#X connect 13 0 7 1;
#X connect 14 0 15 0;
#X connect 14 0 15 1;
#X connect 15 0 12 1;
#X connect 16 0 14 0;
