#N canvas 296 24 1241 794 12;
#X obj 307 258 line;
#X obj 299 309 vsl 15 128 0 1 0 0 empty empty empty 0 -9 0 10 #fcfcfc
#000000 #000000 0 1;
#X obj 27 427 +~;
#X obj 84 385 *~;
#X obj 26 480 osc~;
#X floatatom 211 317 5 0 0 0 - - -, f 5;
#X obj 211 387 *~;
#X obj 879 54 receive mouthh;
#X obj 251 79 tgl 15 0 empty empty empty 17 7 0 10 #fcfcfc #000000
#000000 0 1;
#X obj 239 117 sel 0 1;
#N canvas 927 137 838 722 metronome 0;
#X obj 275 514 osc~ 440;
#X obj 227 554 *~;
#X obj 210 643 dac~;
#X obj 78 497 vline~;
#X obj 227 576 *~ 0.25;
#X obj 336 463 f 440;
#X obj 258 455 f 880;
#X obj 267 378 select 0;
#X obj 267 401 bng 15 250 50 0 empty empty empty 17 7 0 10 #fcfcfc
#000000 #000000;
#X obj 312 400 bng 15 250 50 0 empty empty empty 17 7 0 10 #fcfcfc
#000000 #000000;
#X obj 445 401 print tempo;
#X msg 463 454 \; pd dsp 1;
#X obj 314 584 print num_peers;
#X obj 314 562 r #abl_link_num_peers;
#X obj 146 394 t b f;
#X msg 591 200 tempo \$1;
#X msg 298 202 resolution \$1;
#X msg 460 211 reset \$1 \$2;
#X obj 407 101 pack f f;
#X obj 186 130 tgl 15 0 empty empty empty 17 7 0 10 #fcfcfc #000000
#000000 0 1;
#X floatatom 593 102 5 0 0 2 tempo - -, f 5;
#X floatatom 502 74 5 0 0 2 quantum - -, f 5;
#X floatatom 318 47 5 0 0 2 beat - -, f 5;
#X floatatom 301 157 5 0 0 2 resolution - -, f 5;
#X msg 40 197 connect \$1;
#X obj 269 130 tgl 15 0 empty empty empty 17 7 0 10 #fcfcfc #000000
#000000 0 1;
#X msg 204 202 play \$1;
#X floatatom 743 121 5 0 0 0 - - -, f 5;
#X msg 729 192 offset \$1;
#X msg 93 451 1 \, 0 100;
#X floatatom 662 347 5 0 0 0 - - -, f 5;
#X obj 772 672 print;
#X obj 663 494 / 120;
#X obj 678 398 t b f;
#X msg 615 443 60000;
#X obj 673 604 outlet tempo;
#X obj 458 620 inlet MetroVol;
#X obj 379 375 outlet click;
#X obj 246 325 abl_link~ 1 0 4 160;
#X obj 634 8 loadbang;
#X msg 498 27 4;
#X msg 791 25 188;
#X connect 0 0 1 1;
#X connect 1 0 4 0;
#X connect 3 0 1 0;
#X connect 4 0 2 0;
#X connect 4 0 2 1;
#X connect 5 0 0 0;
#X connect 6 0 0 0;
#X connect 7 0 8 0;
#X connect 7 1 9 0;
#X connect 8 0 6 0;
#X connect 9 0 5 0;
#X connect 13 0 12 0;
#X connect 14 0 29 0;
#X connect 14 1 7 0;
#X connect 15 0 38 0;
#X connect 16 0 38 0;
#X connect 17 0 38 0;
#X connect 18 0 17 0;
#X connect 19 0 24 0;
#X connect 20 0 15 0;
#X connect 21 0 18 1;
#X connect 22 0 18 0;
#X connect 23 0 16 0;
#X connect 24 0 38 0;
#X connect 25 0 26 0;
#X connect 26 0 38 0;
#X connect 27 0 28 0;
#X connect 28 0 38 0;
#X connect 29 0 3 0;
#X connect 30 0 33 0;
#X connect 32 0 35 0;
#X connect 33 0 34 0;
#X connect 33 1 32 1;
#X connect 34 0 32 0;
#X connect 36 0 4 1;
#X connect 38 0 14 0;
#X connect 38 0 37 0;
#X connect 38 3 30 0;
#X connect 39 0 40 0;
#X connect 39 0 41 0;
#X connect 40 0 21 0;
#X connect 41 0 27 0;
#X restore 609 73 pd metronome;
#X obj 601 25 hsl 128 15 0 1 0 0 empty empty empty -2 -8 0 10 #00fc04
#000000 #000000 0 1;
#X floatatom 751 22 5 0 0 0 - - -, f 5;
#X obj 610 111 bng 15 250 50 0 empty empty empty 17 7 0 10 #fcfcfc
#000000 #000000;
#X obj 445 416 mtof;
#X obj 341 58 < 8;
#X floatatom 1016 531 5 0 0 0 - - -, f 5;
#X msg 925 673 67;
#X floatatom 971 767 5 0 0 0 - - -, f 5;
#X msg 1109 674 70;
#X msg 975 682 62;
#X msg 1022 685 58;
#X msg 1066 683 65;
#X obj 124 249 receive mouthw;
#X obj 1018 571 int;
#X msg 863 673 50;
#X obj 460 351 print;
#X obj 77 337 osc~;
#X obj 975 616 sel 10 11 12 13 14 15;
#X msg 1157 678 38;
#X obj 838 93 print;
#X msg 814 318 67;
#X msg 998 319 70;
#X msg 864 327 62;
#X msg 955 328 65;
#X msg 752 318 50;
#X obj 864 261 sel 1 2 3 4 5 6;
#X floatatom 898 440 5 0 0 0 - - -, f 5;
#X floatatom 909 130 5 0 0 0 - - -, f 5;
#X obj 912 181 int;
#X msg 911 330 0;
#X obj 450 462 osc~ 440;
#X obj 28 297 sig~ 100;
#X obj 1086 551 receive mouthw;
#X obj 348 672 dac~;
#X obj 360 629 clip~ -1 1;
#X obj 361 597 *~;
#X obj 206 669 dac~;
#X obj 218 626 clip~ -1 1;
#X obj 219 594 *~;
#X msg 1046 323 55;
#X floatatom 480 130 4 0 0 0 - - -, f 4;
#X msg 314 177 1 100;
#X obj 334 14 receive proximity;
#X msg 201 175 0 100;
#X floatatom 480 60 5 0 0 0 - - -, f 5;
#X msg 140 20 1;
#X msg 130 120 8;
#X connect 0 0 1 0;
#X connect 1 0 46 1;
#X connect 2 0 4 0;
#X connect 3 0 2 1;
#X connect 4 0 46 0;
#X connect 5 0 6 0;
#X connect 5 0 6 1;
#X connect 6 0 3 1;
#X connect 7 0 30 0;
#X connect 7 0 38 0;
#X connect 8 0 9 0;
#X connect 9 0 54 0;
#X connect 9 1 52 0;
#X connect 10 0 13 0;
#X connect 10 1 12 0;
#X connect 11 0 10 0;
#X connect 14 0 41 0;
#X connect 15 0 8 0;
#X connect 16 0 24 0;
#X connect 17 0 18 0;
#X connect 19 0 18 0;
#X connect 20 0 18 0;
#X connect 21 0 18 0;
#X connect 22 0 18 0;
#X connect 23 0 5 0;
#X connect 24 0 28 0;
#X connect 25 0 18 0;
#X connect 27 0 3 0;
#X connect 28 0 25 0;
#X connect 28 1 17 0;
#X connect 28 2 20 0;
#X connect 28 3 21 0;
#X connect 28 4 22 0;
#X connect 28 5 19 0;
#X connect 28 6 29 0;
#X connect 29 0 18 0;
#X connect 31 0 37 0;
#X connect 32 0 37 0;
#X connect 33 0 37 0;
#X connect 34 0 37 0;
#X connect 35 0 37 0;
#X connect 36 0 35 0;
#X connect 36 1 31 0;
#X connect 36 2 33 0;
#X connect 36 3 40 0;
#X connect 36 4 34 0;
#X connect 36 5 32 0;
#X connect 36 6 50 0;
#X connect 37 0 14 0;
#X connect 38 0 39 0;
#X connect 39 0 36 0;
#X connect 40 0 37 0;
#X connect 41 0 46 0;
#X connect 42 0 2 0;
#X connect 45 0 44 0;
#X connect 45 0 44 1;
#X connect 46 0 45 0;
#X connect 48 0 47 0;
#X connect 48 0 47 1;
#X connect 49 0 48 0;
#X connect 50 0 37 0;
#X connect 52 0 0 0;
#X connect 53 0 15 0;
#X connect 54 0 0 0;
