#N canvas 738 37 637 401 10;
#X obj 180 319 dac~;
#X obj 120 215 osc~;
#X obj 180 280 *~;
#X obj 204 161 vline~;
#X obj 120 197 +~ 110;
#X obj 204 196 *~ 0.5;
#X obj 120 176 *~ 1550;
#X msg 204 142 \$1 5;
#X obj 170 70 receive proximity;
#X text 250 100 Here \, sending a float from;
#X text 270 120 Unity to the proximity;
#X text 270 140 receive object triggers a;
#X text 280 160 short vline~ ramp that;
#X text 290 180 applies to both the;
#X text 280 210 oscillator's frequency \,;
#X text 280 230 and its amplitude.;
#X obj 80 70 print;
#X msg 170 30;
#X floatatom 260 30 5 0 0 0 - - -, f 5;
#X obj 250 260 mixer;
#X connect 1 0 19 0;
#X connect 2 0 0 0;
#X connect 2 0 0 1;
#X connect 3 0 5 0;
#X connect 3 0 6 0;
#X connect 4 0 1 0;
#X connect 5 0 19 0;
#X connect 6 0 4 0;
#X connect 7 0 3 0;
#X connect 8 0 7 0;
#X connect 8 0 16 0;
#X connect 18 0 7 0;
