#N canvas 560 0 402 762 12;
#X obj 25 304 inlet~;
#X obj 83 459 dac~;
#X obj 95 416 clip~ -1 1;
#X obj 95 384 *~;
#X obj 117 112 vsl 15 128 0 1 0 0 empty empty empty 0 -9 0 10 #fcfcfc
#000000 #000000 850 1;
#X obj 110 263 *~;
#X obj 269 142 loadbang;
#X msg 269 166 0.5;
#X connect 0 0 3 0;
#X connect 2 0 1 0;
#X connect 2 0 1 1;
#X connect 3 0 2 0;
#X connect 4 0 5 0;
#X connect 4 0 5 1;
#X connect 5 0 3 1;
#X connect 6 0 7 0;
#X connect 7 0 4 0;
#X coords 0 -1 1 1 50 150 1 100 100;
