#N canvas 536 228 450 462 10;
#X obj 200 20 bng 50 250 50 0 empty empty empty 17 7 0 10 #fcfcfc #000000
#000000;
#X floatatom 40 100 5 0 0 0 - - -, f 5;
#X obj 40 120 / 100;
#X floatatom 40 224 5 0 0 0 - - -, f 5;
#X obj 40 390 outlet;
#X obj 90 10 r randomize;
#X obj 250 85 r tick;
#X floatatom 250 110 5 0 0 0 - - -, f 5;
#X obj 250 236 sin;
#X obj 160 340 hsl 128 15 0 1 0 0 empty empty empty -2 -8 0 10 #fcfcfc
#000000 #000000 6868 1;
#X obj 160 290 +;
#X obj 160 320 hsl 128 15 0 1 0 0 empty empty empty -2 -8 0 10 #fcfcfc
#000000 #000000 6868 1;
#X obj 360 190 r sin_freq;
#X obj 360 215 r sin_amp;
#X floatatom 360 75 5 0 0 0 - - -, f 5;
#X obj 360 10 loadbang;
#X obj 360 50 \$0;
#X obj 250 134 +;
#X obj 360 99 expr ($f1-1000)*10;
#X obj 40 80 random 100;
#X obj 250 276 * 0;
#X obj 250 210 * 0;
#X obj 10 10 r set;
#X obj 40 200 line;
#X msg 40 170 \$1 500;
#X connect 0 0 19 0;
#X connect 1 0 2 0;
#X connect 2 0 24 0;
#X connect 3 0 10 1;
#X connect 3 0 11 0;
#X connect 5 0 19 0;
#X connect 6 0 7 0;
#X connect 7 0 17 0;
#X connect 8 0 20 0;
#X connect 9 0 4 0;
#X connect 10 0 9 0;
#X connect 12 0 21 1;
#X connect 13 0 20 1;
#X connect 14 0 18 0;
#X connect 15 0 16 0;
#X connect 16 0 14 0;
#X connect 17 0 21 0;
#X connect 18 0 17 1;
#X connect 19 0 1 0;
#X connect 20 0 10 0;
#X connect 21 0 8 0;
#X connect 22 0 24 0;
#X connect 23 0 3 0;
#X connect 24 0 23 0;
