#N canvas 738 146 467 467 12;
#X obj 60 170 *~;
#X obj 30 260 dac~;
#X obj 300 80 vsl 15 128 0 10 0 0 empty empty empty 0 -9 0 10 #fcfcfc
#000000 #000000 2400 1;
#X floatatom 80 20 5 0 0 0 - - -, f 5;
#X obj 266 31 receive proximity;
#X obj 20 170 *~;
#X obj 50 90 adc~;
#X obj 20 40 osc~;
#X connect 0 0 1 1;
#X connect 2 0 0 1;
#X connect 3 0 7 0;
#X connect 4 0 2 0;
#X connect 5 0 1 0;
#X connect 6 0 5 1;
#X connect 6 1 0 1;
#X connect 7 0 0 0;
#X connect 7 0 5 0;
