#N canvas 381 72 973 696 12;
#X obj 23 19 hsl 200 15 5 120 0 0 empty empty empty -2 -8 0 10 #fcfcfc
#000000 #000000 0 0;
#X obj 521 741 dac~;
#X obj 20 -60 receive proximity;
#X text 81 38 El slide va de 0 a 1;
#X text 91 57 0 inicio del sample \, 1 final;
#X obj 550 600 vsl 15 50 0.006 0.6 1 0 empty empty empty 0 -9 0 10
#fcfcc4 #000000 #000000 0 1;
#X obj 648 386 receive cutoff;
#X obj 250 150 print;
#X obj 390 131 osc~;
#X floatatom 344 23 5 0 600 1 frecuencia - -, f 5;
#X obj 390 82 *~ 2;
#X obj 435 82 *~ 3;
#X obj 477 82 *~ 4;
#X obj 517 82 *~ 5;
#X obj 557 82 *~ 6;
#X obj 598 82 *~ 7;
#X obj 640 82 *~ 8;
#X obj 693 82 *~ 9;
#X obj 744 82 *~ 10;
#X obj 435 131 osc~;
#X obj 477 131 osc~;
#X obj 517 131 osc~;
#X obj 557 131 osc~;
#X obj 598 131 osc~;
#X obj 344 132 osc~;
#X obj 362 261 vsl 15 50 0 0.7 0 0 empty v1 empty 0 -9 0 10 #c4fcc4
#000000 #000000 4228 1;
#X obj 344 329 *~;
#X obj 407 261 vsl 15 50 0 0.4 0 0 empty v2 empty 0 -9 0 10 #c4fcc4
#000000 #000000 1225 1;
#X obj 389 329 *~;
#X obj 434 329 *~;
#X obj 478 329 *~;
#X obj 518 329 *~;
#X obj 558 329 *~;
#X obj 599 329 *~;
#X obj 641 329 *~;
#X obj 694 329 *~;
#X obj 745 329 *~;
#X obj 518 421 lop~;
#X obj 648 471 vsl 15 50 50 1500 1 0 empty empty Filtro_pasabajos 20
25 0 10 #e0c4fc #000000 #000000 3802 1;
#X msg 763 215 0;
#X obj 452 261 vsl 15 50 0 0.4 0 0 empty v3 empty 0 -9 0 10 #c4fcc4
#000000 #000000 2054 1;
#X obj 496 261 vsl 15 50 0 0.4 0 0 empty v4 empty 0 -9 0 10 #c4fcc4
#000000 #000000 2407 1;
#X obj 536 261 vsl 15 50 0 0.4 0 0 empty v5 empty 0 -9 0 10 #c4fcc4
#000000 #000000 2428 1;
#X obj 576 261 vsl 15 50 0 0.4 0 0 empty v6 empty 0 -9 0 10 #c4fcc4
#000000 #000000 1985 1;
#X obj 617 261 vsl 15 50 0 0.4 0 0 empty v7 empty 0 -9 0 10 #c4fcc4
#000000 #000000 1225 1;
#X obj 659 261 vsl 15 50 0 0.4 0 0 empty v8 empty 0 -9 0 10 #c4fcc4
#000000 #000000 1266 1;
#X obj 712 261 vsl 15 50 0 0.4 0 0 empty v9 empty 0 -9 0 10 #c4fcc4
#000000 #000000 1225 1;
#X obj 763 260 vsl 15 50 0 0.4 0 0 empty v10 empty 0 -9 0 10 #c4fcc4
#000000 #000000 241 1;
#X obj 344 -56 loadbang;
#X obj 80 210 tgl 35 0 LT LB Random_on/off -50 -20 0 20 #fcc4c4 #000000
#000000 0 1;
#N canvas 0 380 1218 661 random 0;
#X obj 99 129 / 10;
#X obj 99 237 vline~;
#X obj 121 306 metro 100;
#X obj 100 334 snapshot~;
#X obj 99 0 inlet;
#X obj 121 274 tgl 25 0 empty LT empty 17 7 0 10 #fcc4c4 #000000 #000000
0 1;
#X obj 100 368 vsl 15 50 0 0.7 0 0 v1 empty empty 0 -9 0 10 #c4fcc4
#000000 #000000 2885 1;
#X obj 99 48 metro 5000;
#X obj 230 74 random 4;
#X obj 230 128 / 10;
#X obj 230 237 vline~;
#X obj 255 306 metro 100;
#X obj 231 334 snapshot~;
#X obj 231 368 vsl 15 50 0 0.4 0 0 v2 empty empty 0 -9 0 10 #c4fcc4
#000000 #000000 3519 1;
#X obj 230 102 + 1;
#X obj 230 47 metro 5500;
#X floatatom 107 160 5 0 0 0 - - -, f 5;
#X floatatom 238 159 5 0 0 0 - - -, f 5;
#X obj 350 74 random 4;
#X obj 350 128 / 10;
#X obj 350 237 vline~;
#X obj 372 306 metro 100;
#X obj 351 334 snapshot~;
#X obj 351 368 vsl 15 50 0 0.4 0 0 v3 empty empty 0 -9 0 10 #c4fcc4
#000000 #000000 2450 1;
#X obj 350 102 + 1;
#X floatatom 358 159 5 0 0 0 - - -, f 5;
#X obj 467 77 random 4;
#X obj 467 131 / 10;
#X obj 467 237 vline~;
#X obj 489 306 metro 100;
#X obj 468 334 snapshot~;
#X obj 468 368 vsl 15 50 0 0.4 0 0 v4 empty empty 0 -9 0 10 #c4fcc4
#000000 #000000 2887 1;
#X obj 467 105 + 1;
#X floatatom 475 162 5 0 0 0 - - -, f 5;
#X obj 581 131 / 10;
#X obj 581 237 vline~;
#X obj 603 306 metro 100;
#X obj 582 334 snapshot~;
#X obj 582 368 vsl 15 50 0 0.4 0 0 v5 empty empty 0 -9 0 10 #c4fcc4
#000000 #000000 2428 1;
#X obj 581 105 + 1;
#X floatatom 589 162 5 0 0 0 - - -, f 5;
#X obj 688 133 / 10;
#X obj 688 237 vline~;
#X obj 710 306 metro 100;
#X obj 689 334 snapshot~;
#X obj 689 368 vsl 15 50 0 0.4 0 0 v6 empty empty 0 -9 0 10 #c4fcc4
#000000 #000000 2915 1;
#X obj 688 107 + 1;
#X floatatom 696 164 5 0 0 0 - - -, f 5;
#X obj 802 133 / 10;
#X obj 802 237 vline~;
#X obj 824 306 metro 100;
#X obj 803 334 snapshot~;
#X obj 803 368 vsl 15 50 0 0.4 0 0 v7 empty empty 0 -9 0 10 #c4fcc4
#000000 #000000 2450 1;
#X obj 802 107 + 1;
#X floatatom 810 164 5 0 0 0 - - -, f 5;
#X obj 912 136 / 10;
#X obj 912 237 vline~;
#X obj 934 306 metro 100;
#X obj 913 334 snapshot~;
#X obj 913 368 vsl 15 50 0 0.4 0 0 v8 empty empty 0 -9 0 10 #c4fcc4
#000000 #000000 2409 1;
#X obj 912 110 + 1;
#X floatatom 920 167 5 0 0 0 - - -, f 5;
#X obj 912 55 metro 6000;
#X obj 1026 136 / 10;
#X obj 1026 237 vline~;
#X obj 1048 306 metro 100;
#X obj 1027 334 snapshot~;
#X obj 1027 368 vsl 15 50 0 0.4 0 0 v9 empty empty 0 -9 0 10 #c4fcc4
#000000 #000000 984 1;
#X floatatom 1034 167 5 0 0 0 - - -, f 5;
#X obj 1133 138 / 10;
#X obj 1133 237 vline~;
#X obj 1155 306 metro 100;
#X obj 1134 334 snapshot~;
#X obj 1134 368 vsl 15 50 0 0.4 0 0 v10 empty empty 0 -9 0 10 #c4fcc4
#000000 #000000 241 1;
#X floatatom 1141 169 5 0 0 0 - - -, f 5;
#X obj 350 47 metro 5550;
#X obj 467 50 metro 5600;
#X obj 581 50 metro 5700;
#X obj 688 52 metro 5800;
#X obj 802 52 metro 5900;
#X obj 1026 55 metro 6100;
#X text 100 445 1;
#X text 231 445 2;
#X text 351 445 3;
#X text 468 445 4;
#X text 582 445 5;
#X text 689 445 6;
#X text 803 445 7;
#X text 913 445 8;
#X text 1027 445 9;
#X text 1134 445 10;
#X obj 1026 82 random 2;
#X obj 912 82 random 2;
#X obj 802 79 random 2;
#X obj 581 77 random 3;
#X obj 688 79 random 3;
#X obj 99 75 random 5;
#X obj 99 104 + 3;
#X msg 99 206 \$1 5000;
#X obj 255 274 tgl 25 0 empty LT empty 17 7 0 10 #fcc4c4 #000000 #000000
0 1;
#X obj 372 274 tgl 25 0 empty LT empty 17 7 0 10 #fcc4c4 #000000 #000000
0 1;
#X obj 489 274 tgl 25 0 empty LT empty 17 7 0 10 #fcc4c4 #000000 #000000
0 1;
#X obj 603 274 tgl 25 0 empty LT empty 17 7 0 10 #fcc4c4 #000000 #000000
0 1;
#X obj 710 274 tgl 25 0 empty LT empty 17 7 0 10 #fcc4c4 #000000 #000000
0 1;
#X obj 824 274 tgl 25 0 empty LT empty 17 7 0 10 #fcc4c4 #000000 #000000
0 1;
#X obj 934 274 tgl 25 0 empty LT empty 17 7 0 10 #fcc4c4 #000000 #000000
0 1;
#X obj 1048 274 tgl 25 0 empty LT empty 17 7 0 10 #fcc4c4 #000000 #000000
0 1;
#X obj 1155 274 tgl 25 0 empty LT empty 17 7 0 10 #fcc4c4 #000000 #000000
0 1;
#X obj 1143 29 tgl 15 0 empty empty empty 17 7 0 10 #fcfcfc #000000
#000000 0 1;
#X msg 230 206 \$1 5500;
#X msg 350 206 \$1 5550;
#X msg 467 206 \$1 5600;
#X msg 581 206 \$1 5700;
#X msg 688 206 \$1 5800;
#X msg 802 206 \$1 5900;
#X msg 912 206 \$1 6000;
#X msg 1026 206 \$1 6100;
#X obj 1133 57 metro 6100;
#X msg 1133 206 \$1 6100;
#X obj 1133 84 random 2;
#X connect 0 0 98 0;
#X connect 0 0 16 0;
#X connect 1 0 3 0;
#X connect 2 0 3 0;
#X connect 3 0 6 0;
#X connect 4 0 7 0;
#X connect 4 0 15 0;
#X connect 4 0 62 0;
#X connect 4 0 75 0;
#X connect 4 0 76 0;
#X connect 4 0 77 0;
#X connect 4 0 78 0;
#X connect 4 0 79 0;
#X connect 4 0 80 0;
#X connect 4 0 117 0;
#X connect 5 0 2 0;
#X connect 7 0 96 0;
#X connect 8 0 14 0;
#X connect 9 0 109 0;
#X connect 9 0 17 0;
#X connect 10 0 12 0;
#X connect 11 0 12 0;
#X connect 12 0 13 0;
#X connect 14 0 9 0;
#X connect 15 0 8 0;
#X connect 18 0 24 0;
#X connect 19 0 110 0;
#X connect 19 0 25 0;
#X connect 20 0 22 0;
#X connect 21 0 22 0;
#X connect 22 0 23 0;
#X connect 24 0 19 0;
#X connect 26 0 32 0;
#X connect 27 0 111 0;
#X connect 27 0 33 0;
#X connect 28 0 30 0;
#X connect 29 0 30 0;
#X connect 30 0 31 0;
#X connect 32 0 27 0;
#X connect 34 0 112 0;
#X connect 34 0 40 0;
#X connect 35 0 37 0;
#X connect 36 0 37 0;
#X connect 37 0 38 0;
#X connect 39 0 34 0;
#X connect 41 0 113 0;
#X connect 41 0 47 0;
#X connect 42 0 44 0;
#X connect 43 0 44 0;
#X connect 44 0 45 0;
#X connect 46 0 41 0;
#X connect 48 0 114 0;
#X connect 48 0 54 0;
#X connect 49 0 51 0;
#X connect 50 0 51 0;
#X connect 51 0 52 0;
#X connect 53 0 48 0;
#X connect 55 0 115 0;
#X connect 55 0 61 0;
#X connect 56 0 58 0;
#X connect 57 0 58 0;
#X connect 58 0 59 0;
#X connect 60 0 55 0;
#X connect 62 0 92 0;
#X connect 63 0 116 0;
#X connect 63 0 68 0;
#X connect 64 0 66 0;
#X connect 65 0 66 0;
#X connect 66 0 67 0;
#X connect 69 0 118 0;
#X connect 69 0 74 0;
#X connect 70 0 72 0;
#X connect 71 0 72 0;
#X connect 72 0 73 0;
#X connect 75 0 18 0;
#X connect 76 0 26 0;
#X connect 77 0 94 0;
#X connect 78 0 95 0;
#X connect 79 0 93 0;
#X connect 80 0 91 0;
#X connect 91 0 63 0;
#X connect 92 0 60 0;
#X connect 93 0 53 0;
#X connect 94 0 39 0;
#X connect 95 0 46 0;
#X connect 96 0 97 0;
#X connect 97 0 0 0;
#X connect 98 0 1 0;
#X connect 99 0 11 0;
#X connect 100 0 21 0;
#X connect 101 0 29 0;
#X connect 102 0 36 0;
#X connect 103 0 43 0;
#X connect 104 0 50 0;
#X connect 105 0 57 0;
#X connect 106 0 65 0;
#X connect 107 0 71 0;
#X connect 108 0 117 0;
#X connect 109 0 10 0;
#X connect 110 0 20 0;
#X connect 111 0 28 0;
#X connect 112 0 35 0;
#X connect 113 0 42 0;
#X connect 114 0 49 0;
#X connect 115 0 56 0;
#X connect 116 0 64 0;
#X connect 117 0 119 0;
#X connect 118 0 70 0;
#X connect 119 0 69 0;
#X restore 78 247 pd random vol;
#X obj 351 -33 s LB, f 5;
#X floatatom 648 529 5 0 0 0 - - -, f 5;
#X obj 510 550 hip~;
#X obj 599 548 vsl 15 50 50 800 0 0 empty empty Filtro_pasaaltos 20
25 0 10 #e0c4fc #000000 #000000 980 1;
#X floatatom 598 616 5 0 0 0 - - -, f 5;
#X text 35 280 Podes apagar el random y jugar con;
#X text 34 301 los sliders verdes y la frecuencia;
#X text 35 322 para generar un sonido que te guste;
#X msg 665 442 700;
#X msg 599 519 200;
#X obj 599 413 r LB;
#X text 761 167 Reinciar sliders verdes;
#X text 761 187 (apagar random primero);
#X text 470 24 (podes variar esto para hacerlo más agudo o más grave)
;
#X msg 344 -7 60;
#X text 26 90 Dejo los inputs de Unity \, dps vemos;
#X text 26 107 en donde los conectamos;
#X text 36 379 jugá con los slider violetas tmb!;
#X obj 640 131 osc~;
#X obj 693 131 osc~;
#X obj 744 131 osc~;
#X obj 520 705 *~ 0.5;
#X connect 0 0 9 0;
#X connect 0 0 7 0;
#X connect 2 0 0 0;
#X connect 6 0 38 0;
#X connect 8 0 28 0;
#X connect 9 0 10 0;
#X connect 9 0 11 0;
#X connect 9 0 12 0;
#X connect 9 0 13 0;
#X connect 9 0 14 0;
#X connect 9 0 15 0;
#X connect 9 0 16 0;
#X connect 9 0 17 0;
#X connect 9 0 18 0;
#X connect 9 0 24 0;
#X connect 10 0 8 0;
#X connect 11 0 19 0;
#X connect 12 0 20 0;
#X connect 13 0 21 0;
#X connect 14 0 22 0;
#X connect 15 0 23 0;
#X connect 16 0 69 0;
#X connect 17 0 70 0;
#X connect 18 0 71 0;
#X connect 19 0 29 0;
#X connect 20 0 30 0;
#X connect 21 0 31 0;
#X connect 22 0 32 0;
#X connect 23 0 33 0;
#X connect 24 0 26 0;
#X connect 25 0 26 1;
#X connect 26 0 37 0;
#X connect 27 0 28 1;
#X connect 28 0 37 0;
#X connect 29 0 37 0;
#X connect 30 0 37 0;
#X connect 31 0 37 0;
#X connect 32 0 37 0;
#X connect 33 0 37 0;
#X connect 34 0 37 0;
#X connect 35 0 37 0;
#X connect 36 0 37 0;
#X connect 37 0 53 0;
#X connect 38 0 37 1;
#X connect 38 0 52 0;
#X connect 39 0 25 0;
#X connect 39 0 27 0;
#X connect 39 0 40 0;
#X connect 39 0 41 0;
#X connect 39 0 42 0;
#X connect 39 0 43 0;
#X connect 39 0 44 0;
#X connect 39 0 45 0;
#X connect 39 0 46 0;
#X connect 39 0 47 0;
#X connect 40 0 29 1;
#X connect 41 0 30 1;
#X connect 42 0 31 1;
#X connect 43 0 32 1;
#X connect 44 0 33 1;
#X connect 45 0 34 1;
#X connect 46 0 35 1;
#X connect 47 0 36 1;
#X connect 48 0 51 0;
#X connect 48 0 65 0;
#X connect 49 0 50 0;
#X connect 53 0 72 0;
#X connect 54 0 53 1;
#X connect 54 0 55 0;
#X connect 59 0 38 0;
#X connect 60 0 54 0;
#X connect 61 0 59 0;
#X connect 61 0 60 0;
#X connect 65 0 9 0;
#X connect 69 0 34 0;
#X connect 70 0 35 0;
#X connect 71 0 36 0;
#X connect 72 0 1 1;
#X connect 72 0 1 0;
