#N canvas 1577 103 1522 762 12;
#X obj 100 90 hsl 200 15 1 100 0 0 empty empty empty -2 -8 0 10 #fcfcfc
#000000 #000000 0 0;
#X obj 820 730 vsl 15 50 0.006 0.6 1 0 empty empty empty 0 -9 0 10
#fcfcc4 #000000 #000000 0 1;
#X obj 1140 540 receive cutoff;
#X obj 646 290 osc~;
#X floatatom 620 140 5 0 600 1 frecuencia - -, f 5;
#X obj 606 240 *~ 2;
#X obj 651 240 *~ 3;
#X obj 693 240 *~ 4;
#X obj 733 240 *~ 5;
#X obj 773 240 *~ 6;
#X obj 814 240 *~ 7;
#X obj 856 240 *~ 8;
#X obj 909 240 *~ 9;
#X obj 960 240 *~ 10;
#X obj 697 290 osc~;
#X obj 739 290 osc~;
#X obj 779 290 osc~;
#X obj 819 290 osc~;
#X obj 860 290 osc~;
#X obj 556 290 osc~;
#X obj 619 391 vsl 15 50 0 1 0 0 empty v1 empty 0 -9 0 10 #c4fcc4 #000000
#000000 196 1;
#X obj 601 459 *~;
#X obj 664 391 vsl 15 50 0 1 0 0 empty v2 empty 0 -9 0 10 #c4fcc4 #000000
#000000 2254 1;
#X obj 646 459 *~;
#X obj 691 459 *~;
#X obj 735 459 *~;
#X obj 775 459 *~;
#X obj 815 459 *~;
#X obj 856 459 *~;
#X obj 898 459 *~;
#X obj 951 459 *~;
#X obj 1002 459 *~;
#X obj 760 540 lop~;
#X obj 1100 665 vsl 15 50 50 1500 1 0 empty empty Filtro_pasabajos
20 25 0 10 #e0c4fc #000000 #000000 3802 1;
#X obj 709 391 vsl 15 50 0 1 0 0 empty v3 empty 0 -9 0 10 #c4fcc4 #000000
#000000 2156 1;
#X obj 753 391 vsl 15 50 0 1 0 0 empty v4 empty 0 -9 0 10 #c4fcc4 #000000
#000000 4312 1;
#X obj 793 391 vsl 15 50 0 1 0 0 empty v5 empty 0 -9 0 10 #c4fcc4 #000000
#000000 2548 1;
#X obj 833 391 vsl 15 50 0 1 0 0 empty v6 empty 0 -9 0 10 #c4fcc4 #000000
#000000 1225 1;
#X obj 874 391 vsl 15 50 0 1 0 0 empty v7 empty 0 -9 0 10 #c4fcc4 #000000
#000000 686 1;
#X obj 916 391 vsl 15 50 0 1 0 0 empty v8 empty 0 -9 0 10 #c4fcc4 #000000
#000000 3185 1;
#X obj 969 391 vsl 15 50 0 1 0 0 empty v9 empty 0 -9 0 10 #c4fcc4 #000000
#000000 1813 1;
#X obj 1020 390 vsl 15 50 0 1 0 0 empty v10 empty 0 -9 0 10 #c4fcc4
#000000 #000000 3185 1;
#X obj 440 -30 loadbang;
#X obj 100 610 tgl 35 0 LT LB Random_on/off -50 -20 0 20 #fcc4c4 #000000
#000000 0 1;
#N canvas 0 138 1362 602 random 0;
#X obj 99 129 / 10;
#X obj 99 237 vline~;
#X obj 121 306 metro 100;
#X obj 100 334 snapshot~;
#X obj 121 274 tgl 25 0 empty LT empty 17 7 0 10 #fcc4c4 #000000 #000000
0 1;
#X obj 100 368 vsl 15 50 0 0.7 0 0 v1 empty empty 0 -9 0 10 #c4fcc4
#000000 #000000 0 1;
#X obj 99 48 metro 5000;
#X obj 230 74 random 4;
#X obj 230 128 / 10;
#X obj 230 237 vline~;
#X obj 255 306 metro 100;
#X obj 231 334 snapshot~;
#X obj 231 368 vsl 15 50 0 0.4 0 0 v2 empty empty 0 -9 0 10 #c4fcc4
#000000 #000000 0 1;
#X obj 230 102 + 1;
#X obj 230 47 metro 5500;
#X floatatom 107 160 5 0 0 0 - - -, f 5;
#X floatatom 238 159 5 0 0 0 - - -, f 5;
#X obj 350 74 random 4;
#X obj 350 128 / 10;
#X obj 350 237 vline~;
#X obj 372 306 metro 100;
#X obj 351 334 snapshot~;
#X obj 351 368 vsl 15 50 0 0.4 0 0 v3 empty empty 0 -9 0 10 #c4fcc4
#000000 #000000 0 1;
#X obj 350 102 + 1;
#X floatatom 358 159 5 0 0 0 - - -, f 5;
#X obj 467 77 random 4;
#X obj 467 131 / 10;
#X obj 467 237 vline~;
#X obj 489 306 metro 100;
#X obj 468 334 snapshot~;
#X obj 468 368 vsl 15 50 0 0.4 0 0 v4 empty empty 0 -9 0 10 #c4fcc4
#000000 #000000 0 1;
#X obj 467 105 + 1;
#X floatatom 475 162 5 0 0 0 - - -, f 5;
#X obj 581 131 / 10;
#X obj 581 237 vline~;
#X obj 603 306 metro 100;
#X obj 582 334 snapshot~;
#X obj 582 368 vsl 15 50 0 0.4 0 0 v5 empty empty 0 -9 0 10 #c4fcc4
#000000 #000000 0 1;
#X obj 581 105 + 1;
#X floatatom 589 162 5 0 0 0 - - -, f 5;
#X obj 688 133 / 10;
#X obj 688 237 vline~;
#X obj 710 306 metro 100;
#X obj 689 334 snapshot~;
#X obj 689 368 vsl 15 50 0 0.4 0 0 v6 empty empty 0 -9 0 10 #c4fcc4
#000000 #000000 0 1;
#X obj 688 107 + 1;
#X floatatom 696 164 5 0 0 0 - - -, f 5;
#X obj 802 133 / 10;
#X obj 802 237 vline~;
#X obj 824 306 metro 100;
#X obj 803 334 snapshot~;
#X obj 803 368 vsl 15 50 0 0.4 0 0 v7 empty empty 0 -9 0 10 #c4fcc4
#000000 #000000 0 1;
#X obj 802 107 + 1;
#X floatatom 810 164 5 0 0 0 - - -, f 5;
#X obj 912 136 / 10;
#X obj 912 237 vline~;
#X obj 934 306 metro 100;
#X obj 913 334 snapshot~;
#X obj 913 368 vsl 15 50 0 0.4 0 0 v8 empty empty 0 -9 0 10 #c4fcc4
#000000 #000000 0 1;
#X obj 912 110 + 1;
#X floatatom 920 167 5 0 0 0 - - -, f 5;
#X obj 912 55 metro 6000;
#X obj 1026 136 / 10;
#X obj 1026 237 vline~;
#X obj 1048 306 metro 100;
#X obj 1027 334 snapshot~;
#X obj 1027 368 vsl 15 50 0 0.4 0 0 v9 empty empty 0 -9 0 10 #c4fcc4
#000000 #000000 0 1;
#X floatatom 1034 167 5 0 0 0 - - -, f 5;
#X obj 1133 138 / 10;
#X obj 1133 237 vline~;
#X obj 1155 306 metro 100;
#X obj 1134 334 snapshot~;
#X obj 1134 368 vsl 15 50 0 0.4 0 0 v10 empty empty 0 -9 0 10 #c4fcc4
#000000 #000000 0 1;
#X floatatom 1141 169 5 0 0 0 - - -, f 5;
#X obj 350 47 metro 5550;
#X obj 467 50 metro 5600;
#X obj 581 50 metro 5700;
#X obj 688 52 metro 5800;
#X obj 802 52 metro 5900;
#X obj 1026 55 metro 6100;
#X text 100 445 1;
#X text 231 445 2;
#X text 351 445 3;
#X text 468 445 4;
#X text 582 445 5;
#X text 689 445 6;
#X text 803 445 7;
#X text 913 445 8;
#X text 1027 445 9;
#X text 1134 445 10;
#X obj 1026 82 random 2;
#X obj 912 82 random 2;
#X obj 802 79 random 2;
#X obj 581 77 random 3;
#X obj 688 79 random 3;
#X obj 99 75 random 5;
#X obj 99 104 + 3;
#X msg 99 206 \$1 5000;
#X obj 255 274 tgl 25 0 empty LT empty 17 7 0 10 #fcc4c4 #000000 #000000
0 1;
#X obj 372 274 tgl 25 0 empty LT empty 17 7 0 10 #fcc4c4 #000000 #000000
0 1;
#X obj 489 274 tgl 25 0 empty LT empty 17 7 0 10 #fcc4c4 #000000 #000000
0 1;
#X obj 603 274 tgl 25 0 empty LT empty 17 7 0 10 #fcc4c4 #000000 #000000
0 1;
#X obj 710 274 tgl 25 0 empty LT empty 17 7 0 10 #fcc4c4 #000000 #000000
0 1;
#X obj 824 274 tgl 25 0 empty LT empty 17 7 0 10 #fcc4c4 #000000 #000000
0 1;
#X obj 934 274 tgl 25 0 empty LT empty 17 7 0 10 #fcc4c4 #000000 #000000
0 1;
#X obj 1048 274 tgl 25 0 empty LT empty 17 7 0 10 #fcc4c4 #000000 #000000
0 1;
#X obj 1155 274 tgl 25 0 empty LT empty 17 7 0 10 #fcc4c4 #000000 #000000
0 1;
#X obj 1143 29 tgl 15 0 empty empty empty 17 7 0 10 #fcfcfc #000000
#000000 0 1;
#X msg 230 206 \$1 5500;
#X msg 350 206 \$1 5550;
#X msg 467 206 \$1 5600;
#X msg 581 206 \$1 5700;
#X msg 688 206 \$1 5800;
#X msg 802 206 \$1 5900;
#X msg 912 206 \$1 6000;
#X msg 1026 206 \$1 6100;
#X obj 1133 57 metro 6100;
#X msg 1133 206 \$1 6100;
#X obj 1133 84 random 2;
#X obj 99 0 inlet;
#X connect 0 0 97 0;
#X connect 0 0 15 0;
#X connect 1 0 3 0;
#X connect 2 0 3 0;
#X connect 3 0 5 0;
#X connect 4 0 2 0;
#X connect 6 0 95 0;
#X connect 7 0 13 0;
#X connect 8 0 108 0;
#X connect 8 0 16 0;
#X connect 9 0 11 0;
#X connect 10 0 11 0;
#X connect 11 0 12 0;
#X connect 13 0 8 0;
#X connect 14 0 7 0;
#X connect 17 0 23 0;
#X connect 18 0 109 0;
#X connect 18 0 24 0;
#X connect 19 0 21 0;
#X connect 20 0 21 0;
#X connect 21 0 22 0;
#X connect 23 0 18 0;
#X connect 25 0 31 0;
#X connect 26 0 110 0;
#X connect 26 0 32 0;
#X connect 27 0 29 0;
#X connect 28 0 29 0;
#X connect 29 0 30 0;
#X connect 31 0 26 0;
#X connect 33 0 111 0;
#X connect 33 0 39 0;
#X connect 34 0 36 0;
#X connect 35 0 36 0;
#X connect 36 0 37 0;
#X connect 38 0 33 0;
#X connect 40 0 112 0;
#X connect 40 0 46 0;
#X connect 41 0 43 0;
#X connect 42 0 43 0;
#X connect 43 0 44 0;
#X connect 45 0 40 0;
#X connect 47 0 113 0;
#X connect 47 0 53 0;
#X connect 48 0 50 0;
#X connect 49 0 50 0;
#X connect 50 0 51 0;
#X connect 52 0 47 0;
#X connect 54 0 114 0;
#X connect 54 0 60 0;
#X connect 55 0 57 0;
#X connect 56 0 57 0;
#X connect 57 0 58 0;
#X connect 59 0 54 0;
#X connect 61 0 91 0;
#X connect 62 0 115 0;
#X connect 62 0 67 0;
#X connect 63 0 65 0;
#X connect 64 0 65 0;
#X connect 65 0 66 0;
#X connect 68 0 117 0;
#X connect 68 0 73 0;
#X connect 69 0 71 0;
#X connect 70 0 71 0;
#X connect 71 0 72 0;
#X connect 74 0 17 0;
#X connect 75 0 25 0;
#X connect 76 0 93 0;
#X connect 77 0 94 0;
#X connect 78 0 92 0;
#X connect 79 0 90 0;
#X connect 90 0 62 0;
#X connect 91 0 59 0;
#X connect 92 0 52 0;
#X connect 93 0 38 0;
#X connect 94 0 45 0;
#X connect 95 0 96 0;
#X connect 96 0 0 0;
#X connect 97 0 1 0;
#X connect 98 0 10 0;
#X connect 99 0 20 0;
#X connect 100 0 28 0;
#X connect 101 0 35 0;
#X connect 102 0 42 0;
#X connect 103 0 49 0;
#X connect 104 0 56 0;
#X connect 105 0 64 0;
#X connect 106 0 70 0;
#X connect 107 0 116 0;
#X connect 108 0 9 0;
#X connect 109 0 19 0;
#X connect 110 0 27 0;
#X connect 111 0 34 0;
#X connect 112 0 41 0;
#X connect 113 0 48 0;
#X connect 114 0 55 0;
#X connect 115 0 63 0;
#X connect 116 0 118 0;
#X connect 117 0 69 0;
#X connect 118 0 68 0;
#X connect 119 0 6 0;
#X connect 119 0 14 0;
#X connect 119 0 61 0;
#X connect 119 0 74 0;
#X connect 119 0 75 0;
#X connect 119 0 76 0;
#X connect 119 0 77 0;
#X connect 119 0 78 0;
#X connect 119 0 79 0;
#X connect 119 0 116 0;
#X restore 100 680 pd random vol;
#X floatatom 1100 723 5 0 0 0 - - -, f 5;
#X obj 760 570 hip~;
#X obj 1051 742 vsl 15 50 50 800 0 0 empty empty Filtro_pasaaltos 20
25 0 10 #e0c4fc #000000 #000000 980 1;
#X floatatom 1050 810 5 0 0 0 - - -, f 5;
#X text 57 713 Podes apagar el random y jugar con;
#X text 56 734 los sliders verdes y la frecuencia;
#X text 57 755 para generar un sonido que te guste;
#X msg 1117 636 700;
#X msg 1051 713 200;
#X text 70 840 Reinciar sliders verdes;
#X text 80 870 (apagar random primero);
#X msg 620 10 60;
#X text 58 812 jugá con los slider violetas tmb!;
#X obj 902 290 osc~;
#X obj 955 290 osc~;
#X obj 1006 290 osc~;
#X obj 1210 -10 bng 66 250 50 0 empty empty empty 17 7 0 10 #fcfcfc
#000000 #000000;
#X floatatom 20 110 5 0 0 0 - - -, f 5;
#X floatatom 100 189 5 0 0 0 - - -, f 5;
#X obj 100 217 sel 1;
#X obj 100 246 bng 15 250 50 0 empty empty empty 17 7 0 10 #fcfcfc
#000000 #000000;
#X obj 20 460 hsl 200 15 0 10 0 0 empty empty empty -2 -8 0 10 #fcfcfc
#000000 #000000 1990 0;
#X obj 20 431 line;
#X msg 20 404 \$1 100;
#X obj 630 690 *~;
#X obj 1050 540 loadbang;
#X obj 100 329 s randomize;
#X obj 100 270 spigot;
#X obj 180 230 tgl 40 0 empty empty empty 17 7 0 10 #fcfcfc #000000
#000000 1 1;
#X floatatom 280 189 5 0 0 0 - - -, f 5;
#X msg 180 200 0;
#X obj 280 217 sel 1;
#X msg 210 200 1;
#X obj 280 246 bng 15 250 50 0 empty empty empty 17 7 0 10 #fcfcfc
#000000 #000000;
#X obj 440 40 unpack;
#X obj 100 160 <;
#X obj 280 160 >;
#X obj 820 827 line;
#X msg 820 800 \$1 200;
#N canvas 148 324 726 306 volcontrol 0;
#X obj 30 190 outlet;
#X obj 30 50 rand;
#X obj 90 190 outlet;
#X obj 90 50 rand;
#X obj 150 190 outlet;
#X obj 150 50 rand;
#X obj 210 190 outlet;
#X obj 210 50 rand;
#X obj 260 190 outlet;
#X obj 260 50 rand;
#X obj 320 190 outlet;
#X obj 320 50 rand;
#X obj 380 190 outlet;
#X obj 380 50 rand;
#X obj 440 190 outlet;
#X obj 440 50 rand;
#X obj 500 190 outlet;
#X obj 500 50 rand;
#X obj 550 190 outlet;
#X obj 550 50 rand;
#X connect 1 0 0 0;
#X connect 3 0 2 0;
#X connect 5 0 4 0;
#X connect 7 0 6 0;
#X connect 9 0 8 0;
#X connect 11 0 10 0;
#X connect 13 0 12 0;
#X connect 15 0 14 0;
#X connect 17 0 16 0;
#X connect 19 0 18 0;
#X restore 1140 200 pd volcontrol;
#X obj 1210 70 s randomize;
#N canvas 536 228 450 305 clock 0;
#X obj 130 -4 bng 15 250 50 0 empty empty empty 17 7 0 10 #fcfcfc #000000
#000000;
#X msg 130 115 1;
#X obj 130 144 +;
#X msg 180 56 0;
#X obj 130 20 t b b;
#X floatatom 170 146 5 0 0 0 - - -, f 5;
#X floatatom 130 173 5 0 0 0 - - -, f 5;
#X obj 130 240 s tick;
#X obj 30 0 inlet;
#X obj 130 86 metro 100;
#X connect 0 0 4 0;
#X connect 1 0 2 0;
#X connect 2 0 5 0;
#X connect 2 0 6 0;
#X connect 3 0 2 1;
#X connect 4 0 9 0;
#X connect 4 1 3 0;
#X connect 5 0 2 1;
#X connect 6 0 7 0;
#X connect 8 0 0 0;
#X connect 9 0 1 0;
#X restore 520 10 pd clock;
#X obj 1320 200 s sin_freq;
#X obj 1410 200 s sin_amp;
#X obj 1320 130 vsl 20 50 0 1 0 0 empty empty empty 0 -9 0 10 #fcfcfc
#000000 #000000 0 1;
#X obj 1410 130 vsl 20 50 0 0.5 0 0 empty empty empty 0 -9 0 10 #fcfcfc
#000000 #000000 0 1;
#X obj 840 -40 r tick;
#X floatatom 840 18 5 0 0 0 - - -, f 5;
#X msg 840 80 60;
#X msg 880 80 80;
#X msg 920 80 120;
#X msg 960 80 50;
#X obj 840 139 line;
#X obj 840 46 sel 0 1 2 3 4;
#X msg 840 110 \$1 2000;
#X obj 840 -10 expr ($f1/80)%4;
#X obj 890 20 hradio 15 1 0 8 empty empty empty 0 -8 0 10 #fcfcfc #000000
#000000 0;
#X obj 1110 0 vsl 20 50 0 1 0 0 empty empty empty 0 -9 0 10 #fcfcfc
#000000 #000000 0 1;
#X obj 1110 70 s set;
#X obj 40 40 receive proximity;
#X obj 701 856 dac~;
#X obj 700 820 *~ 0.2;
#X msg 440 10 33 77;
#X connect 0 0 62 0;
#X connect 1 0 83 0;
#X connect 2 0 33 0;
#X connect 3 0 23 0;
#X connect 4 0 5 0;
#X connect 4 0 6 0;
#X connect 4 0 7 0;
#X connect 4 0 8 0;
#X connect 4 0 9 0;
#X connect 4 0 10 0;
#X connect 4 0 11 0;
#X connect 4 0 12 0;
#X connect 4 0 13 0;
#X connect 4 0 19 0;
#X connect 5 0 3 0;
#X connect 6 0 14 0;
#X connect 7 0 15 0;
#X connect 8 0 16 0;
#X connect 9 0 17 0;
#X connect 10 0 18 0;
#X connect 11 0 58 0;
#X connect 12 0 59 0;
#X connect 13 0 60 0;
#X connect 14 0 24 0;
#X connect 15 0 25 0;
#X connect 16 0 26 0;
#X connect 17 0 27 0;
#X connect 18 0 28 0;
#X connect 19 0 21 0;
#X connect 20 0 21 1;
#X connect 21 0 32 0;
#X connect 22 0 23 1;
#X connect 23 0 32 0;
#X connect 24 0 32 0;
#X connect 25 0 32 0;
#X connect 26 0 32 0;
#X connect 27 0 32 0;
#X connect 28 0 32 0;
#X connect 29 0 32 0;
#X connect 30 0 32 0;
#X connect 31 0 32 0;
#X connect 32 0 46 0;
#X connect 33 0 32 1;
#X connect 33 0 45 0;
#X connect 34 0 24 1;
#X connect 35 0 25 1;
#X connect 36 0 26 1;
#X connect 37 0 27 1;
#X connect 38 0 28 1;
#X connect 39 0 29 1;
#X connect 40 0 30 1;
#X connect 41 0 31 1;
#X connect 42 0 56 0;
#X connect 42 0 107 0;
#X connect 42 0 86 0;
#X connect 43 0 44 0;
#X connect 46 0 106 0;
#X connect 47 0 46 1;
#X connect 47 0 48 0;
#X connect 52 0 33 0;
#X connect 53 0 47 0;
#X connect 56 0 4 0;
#X connect 58 0 29 0;
#X connect 59 0 30 0;
#X connect 60 0 31 0;
#X connect 61 0 85 0;
#X connect 62 0 68 0;
#X connect 62 0 80 0;
#X connect 62 0 81 0;
#X connect 63 0 64 0;
#X connect 64 0 65 0;
#X connect 65 0 72 0;
#X connect 66 0 106 1;
#X connect 67 0 66 0;
#X connect 68 0 67 0;
#X connect 70 0 52 0;
#X connect 70 0 53 0;
#X connect 72 0 71 0;
#X connect 72 0 75 0;
#X connect 73 0 72 1;
#X connect 74 0 76 0;
#X connect 75 0 73 0;
#X connect 76 0 78 0;
#X connect 77 0 73 0;
#X connect 78 0 77 0;
#X connect 80 0 63 0;
#X connect 81 0 74 0;
#X connect 83 0 82 0;
#X connect 84 0 20 0;
#X connect 84 1 22 0;
#X connect 84 2 34 0;
#X connect 84 3 35 0;
#X connect 84 4 36 0;
#X connect 84 5 37 0;
#X connect 84 6 38 0;
#X connect 84 7 39 0;
#X connect 84 8 40 0;
#X connect 84 9 41 0;
#X connect 89 0 87 0;
#X connect 90 0 88 0;
#X connect 91 0 100 0;
#X connect 92 0 98 0;
#X connect 93 0 99 0;
#X connect 94 0 99 0;
#X connect 95 0 99 0;
#X connect 96 0 99 0;
#X connect 98 0 93 0;
#X connect 98 1 94 0;
#X connect 98 2 95 0;
#X connect 98 3 96 0;
#X connect 99 0 97 0;
#X connect 100 0 92 0;
#X connect 100 0 101 0;
#X connect 102 0 103 0;
#X connect 104 0 0 0;
#X connect 106 0 105 1;
#X connect 106 0 105 0;
#X connect 107 0 79 0;
